<svg width="33" height="32" viewBox="0 0 33 32" fill="none" xmlns="http://www.w3.org/2000/svg">
<rect x="1.5" y="1" width="30" height="30" rx="7" fill="white"/>
<path d="M10.25 23.2502H13.75C14.3023 23.2502 14.75 22.8025 14.75 22.2502V9.75C14.75 9.19772 14.3023 8.75 13.75 8.75H10.25C9.69772 8.75 9.25 9.19772 9.25 9.75V22.2502C9.25 22.8025 9.69772 23.2502 10.25 23.2502Z" stroke="#3AACE2" stroke-width="1.5" stroke-linecap="round" stroke-linejoin="round"/>
<path d="M19.25 14.2502H22.75C23.3023 14.2502 23.75 13.8025 23.75 13.2502V9.75C23.75 9.19772 23.3023 8.75 22.75 8.75H19.25C18.6977 8.75 18.25 9.19772 18.25 9.75V13.2502C18.25 13.8025 18.6977 14.2502 19.25 14.2502Z" stroke="#3AACE2" stroke-width="1.5" stroke-linecap="round" stroke-linejoin="round"/>
<path d="M19.25 23.2502H22.75C23.3023 23.2502 23.75 22.8025 23.75 22.2502V18.75C23.75 18.1977 23.3023 17.75 22.75 17.75H19.25C18.6977 17.75 18.25 18.1977 18.25 18.75V22.2502C18.25 22.8025 18.6977 23.2502 19.25 23.2502Z" stroke="#3AACE2" stroke-width="1.5" stroke-linecap="round" stroke-linejoin="round"/>
<rect x="1.5" y="1" width="30" height="30" rx="7" stroke="#3AACE2" stroke-width="2"/>
</svg>
