<svg width="33" height="32" viewBox="0 0 33 32" fill="none" xmlns="http://www.w3.org/2000/svg">
<rect x="1.5" y="1" width="30" height="30" rx="7" fill="white"/>
<path d="M16.5 23.25C20.5041 23.25 23.75 20.0041 23.75 16C23.75 11.9959 20.5041 8.75 16.5 8.75C12.4959 8.75 9.25 11.9959 9.25 16C9.25 20.0041 12.4959 23.25 16.5 23.25Z" stroke="#3AACE2" stroke-width="1.5" stroke-linecap="round" stroke-linejoin="round"/>
<path d="M19.75 16C19.75 20.5 17.7426 23.25 16.5 23.25C15.2574 23.25 13.25 20.5 13.25 16C13.25 11.5 15.2574 8.75 16.5 8.75C17.7426 8.75 19.75 11.5 19.75 16Z" stroke="#3AACE2" stroke-width="1.5" stroke-linecap="round" stroke-linejoin="round"/>
<path d="M9.5 16H16.5H23.5" stroke="#3AACE2" stroke-width="1.5" stroke-linecap="round" stroke-linejoin="round"/>
<rect x="1.5" y="1" width="30" height="30" rx="7" stroke="#3AACE2" stroke-width="2"/>
</svg>
