<svg width="33" height="32" viewBox="0 0 33 32" fill="none" xmlns="http://www.w3.org/2000/svg">
<rect x="1.5" y="1" width="30" height="30" rx="7" fill="white"/>
<path d="M23.75 14C23.75 16.7289 22.35 19.25 21 19.25C19.65 19.25 18.25 16.7289 18.25 14C18.25 11.2711 19.65 8.75 21 8.75C22.35 8.75 23.75 11.2711 23.75 14Z" stroke="#3AACE2" stroke-width="1.5"/>
<path d="M21 19.25C21 19.25 12.5 17.5 11.5 17.25C10.5 17 9.25 15.6893 9.25 14C9.25 12.3107 10.5 11 11.5 10.75C12.5 10.5 21 8.75 21 8.75" stroke="#3AACE2" stroke-width="1.5"/>
<path d="M11.25 17.5V21.25C11.25 22.3546 12.1454 23.25 13.25 23.25H13.75C14.8546 23.25 15.75 22.3546 15.75 21.25V18.5" stroke="#3AACE2" stroke-width="1.5"/>
<rect x="1.5" y="1" width="30" height="30" rx="7" stroke="#3AACE2" stroke-width="2"/>
</svg>
