<svg width="33" height="33" viewBox="0 0 33 33" fill="none" xmlns="http://www.w3.org/2000/svg">
<rect x="1.5" y="1.5" width="30" height="30" rx="7" fill="white"/>
<path d="M10.25 16.25C10.25 15.6977 10.6977 15.25 11.25 15.25H21.75C22.3023 15.25 22.75 15.6977 22.75 16.25V21.75C22.75 22.8546 21.8546 23.75 20.75 23.75H12.25C11.1454 23.75 10.25 22.8546 10.25 21.75V16.25Z" stroke="#3AACE2" stroke-width="1.5" stroke-linecap="round" stroke-linejoin="round"/>
<path d="M12.25 15V14.8427C12.25 13.2815 12.1561 11.5413 13.2465 10.4239C13.8683 9.7867 14.8745 9.25 16.5 9.25C18.1255 9.25 19.1317 9.7867 19.7535 10.4239C20.8439 11.5413 20.75 13.2815 20.75 14.8427V15" stroke="#3AACE2" stroke-width="1.5" stroke-linecap="round" stroke-linejoin="round"/>
<rect x="1.5" y="1.5" width="30" height="30" rx="7" stroke="#3AACE2" stroke-width="2"/>
</svg>
