<svg width="33" height="32" viewBox="0 0 33 32" fill="none" xmlns="http://www.w3.org/2000/svg">
<rect x="1.5" y="1" width="30" height="30" rx="7" fill="white"/>
<path d="M9.45215 20.3536L14.7151 9.85659C15.453 8.38482 17.5538 8.38521 18.2912 9.85724L23.5494 20.3543C24.2155 21.6841 23.2486 23.25 21.7612 23.25H11.24C9.75229 23.25 8.78535 21.6835 9.45215 20.3536Z" stroke="#3AACE2" stroke-width="1.5" stroke-linecap="round" stroke-linejoin="round"/>
<path d="M16.5 14V16" stroke="#3AACE2" stroke-width="2" stroke-linecap="round" stroke-linejoin="round"/>
<path d="M16.5 21C17.0523 21 17.5 20.5523 17.5 20C17.5 19.4477 17.0523 19 16.5 19C15.9477 19 15.5 19.4477 15.5 20C15.5 20.5523 15.9477 21 16.5 21Z" fill="#3AACE2"/>
<rect x="1.5" y="1" width="30" height="30" rx="7" stroke="#3AACE2" stroke-width="2"/>
</svg>
