<svg width="33" height="32" viewBox="0 0 33 32" fill="none" xmlns="http://www.w3.org/2000/svg">
<rect x="1.5" y="1" width="30" height="30" rx="7" fill="white"/>
<path d="M16.5 23.25C20.5041 23.25 23.75 20.0041 23.75 16C23.75 11.9959 20.5041 8.75 16.5 8.75C12.4959 8.75 9.25 11.9959 9.25 16C9.25 20.0041 12.4959 23.25 16.5 23.25Z" stroke="#3AACE2" stroke-width="1.5" stroke-linecap="round" stroke-linejoin="round"/>
<path d="M18.75 12.75H15.875C14.9775 12.75 14.25 13.4775 14.25 14.375C14.25 15.2725 14.9775 16 15.875 16H17.125C18.0225 16 18.75 16.7275 18.75 17.625C18.75 18.5225 18.0225 19.25 17.125 19.25H14.25" stroke="#3AACE2" stroke-width="1.5" stroke-linecap="round" stroke-linejoin="round"/>
<path d="M16.5 11.75V12.25" stroke="#3AACE2" stroke-width="1.5" stroke-linecap="round" stroke-linejoin="round"/>
<path d="M16.5 19.75V20.25" stroke="#3AACE2" stroke-width="1.5" stroke-linecap="round" stroke-linejoin="round"/>
<rect x="1.5" y="1" width="30" height="30" rx="7" stroke="#3AACE2" stroke-width="2"/>
</svg>
