<svg width="564" height="382" viewBox="0 0 564 382" fill="none" xmlns="http://www.w3.org/2000/svg">
<g filter="url(#filter0_d)">
<rect x="90" width="454" height="284" rx="8" fill="#465876"/>
<path d="M154 36C154 33.7909 155.791 32 158 32H542V274C542 278.418 538.418 282 534 282H154V36Z" fill="white"/>
<g filter="url(#filter1_d)">
<rect x="175" y="207.139" width="326" height="90.5333" rx="7" fill="white" stroke="#465876" stroke-width="2"/>
<path d="M187.499 227.536C186.659 227.536 185.923 227.352 185.291 226.984C184.667 226.616 184.175 226.108 183.815 225.46C183.463 224.804 183.287 224.048 183.287 223.192C183.287 222.336 183.463 221.584 183.815 220.936C184.175 220.28 184.667 219.768 185.291 219.4C185.923 219.032 186.659 218.848 187.499 218.848C188.331 218.848 189.063 219.032 189.695 219.4C190.327 219.768 190.819 220.28 191.171 220.936C191.523 221.584 191.699 222.336 191.699 223.192C191.699 223.992 191.543 224.708 191.231 225.34C190.919 225.964 190.487 226.46 189.935 226.828L191.879 228.916H189.971L188.651 227.404C188.283 227.492 187.899 227.536 187.499 227.536ZM187.499 226.156C188.299 226.156 188.935 225.892 189.407 225.364C189.887 224.836 190.127 224.112 190.127 223.192C190.127 222.272 189.887 221.548 189.407 221.02C188.935 220.492 188.299 220.228 187.499 220.228C186.699 220.228 186.059 220.492 185.579 221.02C185.099 221.548 184.859 222.272 184.859 223.192C184.859 224.112 185.099 224.836 185.579 225.364C186.059 225.892 186.699 226.156 187.499 226.156ZM194.985 227.536C194.241 227.536 193.665 227.304 193.257 226.84C192.857 226.376 192.657 225.696 192.657 224.8V221.44H194.181V224.656C194.181 225.168 194.285 225.56 194.493 225.832C194.701 226.104 195.029 226.24 195.477 226.24C195.901 226.24 196.249 226.088 196.521 225.784C196.801 225.48 196.941 225.056 196.941 224.512V221.44H198.477V227.392H197.121L197.001 226.384C196.817 226.736 196.549 227.016 196.197 227.224C195.853 227.432 195.449 227.536 194.985 227.536ZM202.549 227.536C201.973 227.536 201.453 227.404 200.989 227.14C200.533 226.876 200.169 226.512 199.897 226.048C199.633 225.576 199.501 225.032 199.501 224.416C199.501 223.8 199.637 223.26 199.909 222.796C200.181 222.324 200.545 221.956 201.001 221.692C201.465 221.428 201.985 221.296 202.561 221.296C203.129 221.296 203.641 221.428 204.097 221.692C204.561 221.956 204.925 222.324 205.189 222.796C205.461 223.26 205.597 223.8 205.597 224.416C205.597 225.032 205.461 225.576 205.189 226.048C204.925 226.512 204.561 226.876 204.097 227.14C203.633 227.404 203.117 227.536 202.549 227.536ZM202.549 226.204C202.949 226.204 203.297 226.056 203.593 225.76C203.889 225.456 204.037 225.008 204.037 224.416C204.037 223.824 203.889 223.38 203.593 223.084C203.297 222.78 202.953 222.628 202.561 222.628C202.153 222.628 201.801 222.78 201.505 223.084C201.217 223.38 201.073 223.824 201.073 224.416C201.073 225.008 201.217 225.456 201.505 225.76C201.801 226.056 202.149 226.204 202.549 226.204ZM209.028 227.392C208.404 227.392 207.904 227.24 207.528 226.936C207.152 226.632 206.964 226.092 206.964 225.316V222.724H205.944V221.44H206.964L207.144 219.844H208.5V221.44H210.108V222.724H208.5V225.328C208.5 225.616 208.56 225.816 208.68 225.928C208.808 226.032 209.024 226.084 209.328 226.084H210.072V227.392H209.028ZM213.807 227.536C213.207 227.536 212.675 227.408 212.211 227.152C211.747 226.896 211.383 226.536 211.119 226.072C210.855 225.608 210.723 225.072 210.723 224.464C210.723 223.848 210.851 223.3 211.107 222.82C211.371 222.34 211.731 221.968 212.187 221.704C212.651 221.432 213.195 221.296 213.819 221.296C214.403 221.296 214.919 221.424 215.367 221.68C215.815 221.936 216.163 222.288 216.411 222.736C216.667 223.176 216.795 223.668 216.795 224.212C216.795 224.3 216.791 224.392 216.783 224.488C216.783 224.584 216.779 224.684 216.771 224.788H212.247C212.279 225.252 212.439 225.616 212.727 225.88C213.023 226.144 213.379 226.276 213.795 226.276C214.107 226.276 214.367 226.208 214.575 226.072C214.791 225.928 214.951 225.744 215.055 225.52H216.615C216.503 225.896 216.315 226.24 216.051 226.552C215.795 226.856 215.475 227.096 215.091 227.272C214.715 227.448 214.287 227.536 213.807 227.536ZM213.819 222.544C213.443 222.544 213.111 222.652 212.823 222.868C212.535 223.076 212.351 223.396 212.271 223.828H215.235C215.211 223.436 215.067 223.124 214.803 222.892C214.539 222.66 214.211 222.544 213.819 222.544ZM220.187 227.536C219.659 227.536 219.195 227.452 218.795 227.284C218.395 227.108 218.075 226.868 217.835 226.564C217.595 226.26 217.451 225.908 217.403 225.508H218.951C218.999 225.74 219.127 225.94 219.335 226.108C219.551 226.268 219.827 226.348 220.163 226.348C220.499 226.348 220.743 226.28 220.895 226.144C221.055 226.008 221.135 225.852 221.135 225.676C221.135 225.42 221.023 225.248 220.799 225.16C220.575 225.064 220.263 224.972 219.863 224.884C219.607 224.828 219.347 224.76 219.083 224.68C218.819 224.6 218.575 224.5 218.351 224.38C218.135 224.252 217.959 224.092 217.823 223.9C217.687 223.7 217.619 223.456 217.619 223.168C217.619 222.64 217.827 222.196 218.243 221.836C218.667 221.476 219.259 221.296 220.019 221.296C220.723 221.296 221.283 221.46 221.699 221.788C222.123 222.116 222.375 222.568 222.455 223.144H221.003C220.915 222.704 220.583 222.484 220.007 222.484C219.719 222.484 219.495 222.54 219.335 222.652C219.183 222.764 219.107 222.904 219.107 223.072C219.107 223.248 219.223 223.388 219.455 223.492C219.687 223.596 219.995 223.692 220.379 223.78C220.795 223.876 221.175 223.984 221.519 224.104C221.871 224.216 222.151 224.388 222.359 224.62C222.567 224.844 222.671 225.168 222.671 225.592C222.679 225.96 222.583 226.292 222.383 226.588C222.183 226.884 221.895 227.116 221.519 227.284C221.143 227.452 220.699 227.536 220.187 227.536Z" fill="#465876"/>
<rect width="310.507" height="0.578333" transform="translate(182.747 236.212)" fill="#D1D5DB"/>
<rect width="310.507" height="0.578333" transform="translate(182.747 250.092)" fill="#D1D5DB"/>
<rect width="310.507" height="0.578333" transform="translate(182.747 263.972)" fill="#D1D5DB"/>
<rect width="310.507" height="0.578333" transform="translate(182.747 277.852)" fill="#D1D5DB"/>
<rect x="183.84" y="240.839" width="43.7333" height="4.62667" rx="2" fill="#A8B1CA"/>
<rect opacity="0.5" x="245.067" y="240.839" width="68.88" height="4.62667" rx="2" fill="#A8B1CA"/>
<rect opacity="0.2" x="331.44" y="240.839" width="126.827" height="4.62667" rx="2" fill="#A8B1CA"/>
<rect x="183.84" y="254.719" width="25.1467" height="4.62667" rx="2" fill="#A8B1CA"/>
<rect opacity="0.5" x="245.067" y="254.719" width="63.4133" height="4.62667" rx="2" fill="#A8B1CA"/>
<rect opacity="0.2" x="331.44" y="254.719" width="157.44" height="4.62667" rx="2" fill="#A8B1CA"/>
<rect x="183.84" y="268.599" width="36.08" height="4.62667" rx="2" fill="#A8B1CA"/>
<rect opacity="0.5" x="245.067" y="268.599" width="36.08" height="4.62667" rx="2" fill="#A8B1CA"/>
<rect opacity="0.2" x="331.44" y="268.599" width="146.507" height="4.62667" rx="2" fill="#A8B1CA"/>
<rect x="183.84" y="282.479" width="40.4533" height="4.62667" rx="2" fill="#A8B1CA"/>
<rect opacity="0.5" x="245.067" y="282.479" width="53.5733" height="4.62667" rx="2" fill="#A8B1CA"/>
<rect opacity="0.2" x="331.44" y="282.479" width="157.44" height="4.62667" rx="2" fill="#A8B1CA"/>
</g>
<g filter="url(#filter2_d)">
<g filter="url(#filter3_d)">
<rect x="311" y="112.139" width="190.781" height="74" rx="8" fill="white"/>
<rect x="312" y="113.139" width="188.781" height="72" rx="7" stroke="#465876" stroke-width="2"/>
</g>
<path d="M323.719 171.951C323.719 170.847 324.614 169.951 325.719 169.951H335.594C336.698 169.951 337.594 170.847 337.594 171.951V175.732H323.719V171.951Z" fill="#4AD382"/>
<path d="M342.219 163.857C342.219 162.753 343.114 161.857 344.219 161.857H354.094C355.198 161.857 356.094 162.753 356.094 163.857V175.732H342.219V163.857Z" fill="#4AD382"/>
<path d="M360.719 166.17C360.719 165.065 361.614 164.17 362.719 164.17H372.594C373.698 164.17 374.594 165.065 374.594 166.17V175.732H360.719V166.17Z" fill="#4AD382"/>
<path d="M379.219 154.607C379.219 153.503 380.114 152.607 381.219 152.607H391.094C392.198 152.607 393.094 153.503 393.094 154.607V175.732H379.219V154.607Z" fill="#4AD382"/>
<path d="M397.719 151.139C397.719 150.034 398.614 149.139 399.719 149.139H409.594C410.698 149.139 411.594 150.034 411.594 151.139V175.732H397.719V151.139Z" fill="#4AD382"/>
<path d="M416.219 156.92C416.219 155.815 417.114 154.92 418.219 154.92H428.094C429.198 154.92 430.094 155.815 430.094 156.92V175.732H416.219V156.92Z" fill="#4AD382"/>
<path d="M434.719 143.045C434.719 141.94 435.614 141.045 436.719 141.045H446.594C447.698 141.045 448.594 141.94 448.594 143.045V175.732H434.719V143.045Z" fill="#4AD382"/>
<path d="M453.219 140.732C453.219 139.628 454.114 138.732 455.219 138.732H465.094C466.198 138.732 467.094 139.628 467.094 140.732V175.732H453.219V140.732Z" fill="#4AD382"/>
<path d="M471.719 136.107C471.719 135.003 472.614 134.107 473.719 134.107H483.594C484.698 134.107 485.594 135.003 485.594 136.107V175.732H471.719V136.107Z" fill="#4AD382"/>
<path d="M321.25 136.42C321.25 135.868 320.802 135.42 320.25 135.42C319.698 135.42 319.25 135.868 319.25 136.42L321.25 136.42ZM491.375 176.732C491.927 176.732 492.375 176.285 492.375 175.732C492.375 175.18 491.927 174.732 491.375 174.732L491.375 176.732ZM363.031 175.732L363.031 174.732L363.031 175.732ZM322.25 175.732L322.25 176.732L322.25 175.732ZM319.25 136.42L319.25 173.732L321.25 173.732L321.25 136.42L319.25 136.42ZM322.25 176.732L363.031 176.732L363.031 174.732L322.25 174.732L322.25 176.732ZM363.031 176.732L491.375 176.732L491.375 174.732L363.031 174.732L363.031 176.732ZM319.25 173.732C319.25 175.389 320.593 176.732 322.25 176.732L322.25 174.732C321.698 174.732 321.25 174.285 321.25 173.732L319.25 173.732Z" fill="#A8B1CA"/>
<rect opacity="0.2" x="320.25" y="121.389" width="72.8438" height="4.625" rx="2" fill="#A8B1CA"/>
</g>
<g filter="url(#filter4_d)">
<g filter="url(#filter5_d)">
<rect x="174" y="112" width="117" height="74.1386" rx="8" fill="white"/>
<rect x="175" y="113" width="115" height="72.1386" rx="7" stroke="#465876" stroke-width="2"/>
</g>
<rect opacity="0.5" x="183.267" y="121.267" width="72.9802" height="4.63366" rx="2" fill="#A8B1CA"/>
<path opacity="0.5" d="M190.218 173.396H184.426V175.713H279.995V135.168L265.515 137.485L258.564 150.228L249.297 152.544L240.609 154.282L230.762 163.549H223.233L213.386 161.233L204.119 165.287L196.589 166.445L190.218 173.396Z" fill="url(#paint0_linear)"/>
<path d="M185.426 136.327C185.426 135.774 184.978 135.327 184.426 135.327C183.874 135.327 183.426 135.774 183.426 136.327L185.426 136.327ZM279.416 176.713C279.968 176.713 280.416 176.265 280.416 175.713C280.416 175.161 279.968 174.713 279.416 174.713L279.416 176.713ZM227.287 175.713L227.287 174.713L227.287 175.713ZM186.426 175.713L186.426 174.713L186.426 175.713ZM183.426 136.327L183.426 173.713L185.426 173.713L185.426 136.327L183.426 136.327ZM186.426 176.713L227.287 176.713L227.287 174.713L186.426 174.713L186.426 176.713ZM227.287 176.713L279.416 176.713L279.416 174.713L227.287 174.713L227.287 176.713ZM183.426 173.713C183.426 175.37 184.769 176.713 186.426 176.713L186.426 174.713C185.874 174.713 185.426 174.265 185.426 173.713L183.426 173.713Z" fill="#A8B1CA"/>
</g>
<path d="M176.088 70V58.8H178.136V63.456H183.16V58.8H185.208V70H183.16V65.12H178.136V70H176.088ZM190.873 70.192C190.073 70.192 189.364 70.0213 188.745 69.68C188.126 69.3387 187.641 68.8587 187.289 68.24C186.937 67.6213 186.761 66.9067 186.761 66.096C186.761 65.2747 186.932 64.544 187.273 63.904C187.625 63.264 188.105 62.768 188.713 62.416C189.332 62.0533 190.057 61.872 190.889 61.872C191.668 61.872 192.356 62.0427 192.953 62.384C193.55 62.7253 194.014 63.1947 194.345 63.792C194.686 64.3787 194.857 65.0347 194.857 65.76C194.857 65.8773 194.852 66 194.841 66.128C194.841 66.256 194.836 66.3893 194.825 66.528H188.793C188.836 67.1467 189.049 67.632 189.433 67.984C189.828 68.336 190.302 68.512 190.857 68.512C191.273 68.512 191.62 68.4213 191.897 68.24C192.185 68.048 192.398 67.8027 192.537 67.504H194.617C194.468 68.0053 194.217 68.464 193.865 68.88C193.524 69.2853 193.097 69.6053 192.585 69.84C192.084 70.0747 191.513 70.192 190.873 70.192ZM190.889 63.536C190.388 63.536 189.945 63.68 189.561 63.968C189.177 64.2453 188.932 64.672 188.825 65.248H192.777C192.745 64.7253 192.553 64.3093 192.201 64C191.849 63.6907 191.412 63.536 190.889 63.536ZM196.259 70V58.48H198.307V70H196.259ZM200.08 70V58.48H202.128V70H200.08ZM207.709 70.192C206.941 70.192 206.247 70.016 205.629 69.664C205.021 69.312 204.535 68.8267 204.173 68.208C203.821 67.5787 203.645 66.8533 203.645 66.032C203.645 65.2107 203.826 64.4907 204.189 63.872C204.551 63.2427 205.037 62.752 205.645 62.4C206.263 62.048 206.957 61.872 207.725 61.872C208.482 61.872 209.165 62.048 209.773 62.4C210.391 62.752 210.877 63.2427 211.229 63.872C211.591 64.4907 211.773 65.2107 211.773 66.032C211.773 66.8533 211.591 67.5787 211.229 68.208C210.877 68.8267 210.391 69.312 209.773 69.664C209.154 70.016 208.466 70.192 207.709 70.192ZM207.709 68.416C208.242 68.416 208.706 68.2187 209.101 67.824C209.495 67.4187 209.693 66.8213 209.693 66.032C209.693 65.2427 209.495 64.6507 209.101 64.256C208.706 63.8507 208.247 63.648 207.725 63.648C207.181 63.648 206.711 63.8507 206.317 64.256C205.933 64.6507 205.741 65.2427 205.741 66.032C205.741 66.8213 205.933 67.4187 206.317 67.824C206.711 68.2187 207.175 68.416 207.709 68.416ZM220.312 70C219.48 70 218.814 69.7973 218.312 69.392C217.811 68.9867 217.56 68.2667 217.56 67.232V63.776H216.2V62.064H217.56L217.8 59.936H219.608V62.064H221.752V63.776H219.608V67.248C219.608 67.632 219.688 67.8987 219.848 68.048C220.019 68.1867 220.307 68.256 220.712 68.256H221.704V70H220.312ZM223.191 70V58.48H225.239V63.28C225.505 62.8427 225.863 62.5013 226.311 62.256C226.769 62 227.292 61.872 227.879 61.872C228.86 61.872 229.617 62.1813 230.151 62.8C230.695 63.4187 230.967 64.3253 230.967 65.52V70H228.935V65.712C228.935 65.0293 228.796 64.5067 228.519 64.144C228.252 63.7813 227.825 63.6 227.239 63.6C226.663 63.6 226.183 63.8027 225.799 64.208C225.425 64.6133 225.239 65.1787 225.239 65.904V70H223.191ZM236.461 70.192C235.661 70.192 234.952 70.0213 234.333 69.68C233.714 69.3387 233.229 68.8587 232.877 68.24C232.525 67.6213 232.349 66.9067 232.349 66.096C232.349 65.2747 232.52 64.544 232.861 63.904C233.213 63.264 233.693 62.768 234.301 62.416C234.92 62.0533 235.645 61.872 236.477 61.872C237.256 61.872 237.944 62.0427 238.541 62.384C239.138 62.7253 239.602 63.1947 239.933 63.792C240.274 64.3787 240.445 65.0347 240.445 65.76C240.445 65.8773 240.44 66 240.429 66.128C240.429 66.256 240.424 66.3893 240.413 66.528H234.381C234.424 67.1467 234.637 67.632 235.021 67.984C235.416 68.336 235.89 68.512 236.445 68.512C236.861 68.512 237.208 68.4213 237.485 68.24C237.773 68.048 237.986 67.8027 238.125 67.504H240.205C240.056 68.0053 239.805 68.464 239.453 68.88C239.112 69.2853 238.685 69.6053 238.173 69.84C237.672 70.0747 237.101 70.192 236.461 70.192ZM236.477 63.536C235.976 63.536 235.533 63.68 235.149 63.968C234.765 64.2453 234.52 64.672 234.413 65.248H238.365C238.333 64.7253 238.141 64.3093 237.789 64C237.437 63.6907 237 63.536 236.477 63.536ZM241.848 70V62.064H243.672L243.864 63.552C244.152 63.04 244.541 62.6347 245.032 62.336C245.533 62.0267 246.12 61.872 246.792 61.872V64.032H246.216C245.768 64.032 245.368 64.1013 245.016 64.24C244.664 64.3787 244.386 64.6187 244.184 64.96C243.992 65.3013 243.896 65.776 243.896 66.384V70H241.848ZM251.587 70.192C250.787 70.192 250.077 70.0213 249.459 69.68C248.84 69.3387 248.355 68.8587 248.003 68.24C247.651 67.6213 247.475 66.9067 247.475 66.096C247.475 65.2747 247.645 64.544 247.987 63.904C248.339 63.264 248.819 62.768 249.427 62.416C250.045 62.0533 250.771 61.872 251.603 61.872C252.381 61.872 253.069 62.0427 253.667 62.384C254.264 62.7253 254.728 63.1947 255.059 63.792C255.4 64.3787 255.571 65.0347 255.571 65.76C255.571 65.8773 255.565 66 255.555 66.128C255.555 66.256 255.549 66.3893 255.539 66.528H249.507C249.549 67.1467 249.763 67.632 250.147 67.984C250.541 68.336 251.016 68.512 251.571 68.512C251.987 68.512 252.333 68.4213 252.611 68.24C252.899 68.048 253.112 67.8027 253.251 67.504H255.331C255.181 68.0053 254.931 68.464 254.579 68.88C254.237 69.2853 253.811 69.6053 253.299 69.84C252.797 70.0747 252.227 70.192 251.587 70.192ZM251.603 63.536C251.101 63.536 250.659 63.68 250.275 63.968C249.891 64.2453 249.645 64.672 249.539 65.248H253.491C253.459 64.7253 253.267 64.3093 252.915 64C252.563 63.6907 252.125 63.536 251.603 63.536ZM256.157 71.856L257.069 67.872H259.053L257.501 71.856H256.157Z" fill="#132337"/>
<path opacity="0.7" d="M175.816 87V78.6H177.352V82.092H181.12V78.6H182.656V87H181.12V83.34H177.352V87H175.816ZM186.785 87.144C186.185 87.144 185.653 87.016 185.189 86.76C184.725 86.504 184.361 86.144 184.097 85.68C183.833 85.216 183.701 84.68 183.701 84.072C183.701 83.456 183.829 82.908 184.085 82.428C184.349 81.948 184.709 81.576 185.165 81.312C185.629 81.04 186.173 80.904 186.797 80.904C187.381 80.904 187.897 81.032 188.345 81.288C188.793 81.544 189.141 81.896 189.389 82.344C189.645 82.784 189.773 83.276 189.773 83.82C189.773 83.908 189.769 84 189.761 84.096C189.761 84.192 189.757 84.292 189.749 84.396H185.225C185.257 84.86 185.417 85.224 185.705 85.488C186.001 85.752 186.357 85.884 186.773 85.884C187.085 85.884 187.345 85.816 187.553 85.68C187.769 85.536 187.929 85.352 188.033 85.128H189.593C189.481 85.504 189.293 85.848 189.029 86.16C188.773 86.464 188.453 86.704 188.069 86.88C187.693 87.056 187.265 87.144 186.785 87.144ZM186.797 82.152C186.421 82.152 186.089 82.26 185.801 82.476C185.513 82.684 185.329 83.004 185.249 83.436H188.213C188.189 83.044 188.045 82.732 187.781 82.5C187.517 82.268 187.189 82.152 186.797 82.152ZM190.705 87V81.048H192.073L192.217 82.164C192.433 81.78 192.725 81.476 193.093 81.252C193.469 81.02 193.909 80.904 194.413 80.904V82.524H193.981C193.645 82.524 193.345 82.576 193.081 82.68C192.817 82.784 192.609 82.964 192.457 83.22C192.313 83.476 192.241 83.832 192.241 84.288V87H190.705ZM197.889 87.144C197.289 87.144 196.757 87.016 196.293 86.76C195.829 86.504 195.465 86.144 195.201 85.68C194.937 85.216 194.805 84.68 194.805 84.072C194.805 83.456 194.933 82.908 195.189 82.428C195.453 81.948 195.813 81.576 196.269 81.312C196.733 81.04 197.277 80.904 197.901 80.904C198.485 80.904 199.001 81.032 199.449 81.288C199.897 81.544 200.245 81.896 200.493 82.344C200.749 82.784 200.877 83.276 200.877 83.82C200.877 83.908 200.873 84 200.865 84.096C200.865 84.192 200.861 84.292 200.853 84.396H196.329C196.361 84.86 196.521 85.224 196.809 85.488C197.105 85.752 197.461 85.884 197.877 85.884C198.189 85.884 198.449 85.816 198.657 85.68C198.873 85.536 199.033 85.352 199.137 85.128H200.697C200.585 85.504 200.397 85.848 200.133 86.16C199.877 86.464 199.557 86.704 199.173 86.88C198.797 87.056 198.369 87.144 197.889 87.144ZM197.901 82.152C197.525 82.152 197.193 82.26 196.905 82.476C196.617 82.684 196.433 83.004 196.353 83.436H199.317C199.293 83.044 199.149 82.732 198.885 82.5C198.621 82.268 198.293 82.152 197.901 82.152ZM201.521 81.552L202.181 78.6H203.801L202.577 81.552H201.521ZM206.463 87.144C205.935 87.144 205.471 87.06 205.071 86.892C204.671 86.716 204.351 86.476 204.111 86.172C203.871 85.868 203.727 85.516 203.679 85.116H205.227C205.275 85.348 205.403 85.548 205.611 85.716C205.827 85.876 206.103 85.956 206.439 85.956C206.775 85.956 207.019 85.888 207.171 85.752C207.331 85.616 207.411 85.46 207.411 85.284C207.411 85.028 207.299 84.856 207.075 84.768C206.851 84.672 206.539 84.58 206.139 84.492C205.883 84.436 205.623 84.368 205.359 84.288C205.095 84.208 204.851 84.108 204.627 83.988C204.411 83.86 204.235 83.7 204.099 83.508C203.963 83.308 203.895 83.064 203.895 82.776C203.895 82.248 204.103 81.804 204.519 81.444C204.943 81.084 205.535 80.904 206.295 80.904C206.999 80.904 207.559 81.068 207.975 81.396C208.399 81.724 208.651 82.176 208.731 82.752H207.279C207.191 82.312 206.859 82.092 206.283 82.092C205.995 82.092 205.771 82.148 205.611 82.26C205.459 82.372 205.383 82.512 205.383 82.68C205.383 82.856 205.499 82.996 205.731 83.1C205.963 83.204 206.271 83.3 206.655 83.388C207.071 83.484 207.451 83.592 207.795 83.712C208.147 83.824 208.427 83.996 208.635 84.228C208.843 84.452 208.947 84.776 208.947 85.2C208.955 85.568 208.859 85.9 208.659 86.196C208.459 86.492 208.171 86.724 207.795 86.892C207.419 87.06 206.975 87.144 206.463 87.144ZM213.611 87L211.871 81.048H213.395L214.427 85.332L215.627 81.048H217.331L218.531 85.332L219.576 81.048H221.099L219.348 87H217.751L216.479 82.548L215.207 87H213.611ZM221.709 87V78.36H223.245V81.96C223.445 81.632 223.713 81.376 224.049 81.192C224.393 81 224.785 80.904 225.225 80.904C225.961 80.904 226.529 81.136 226.929 81.6C227.337 82.064 227.541 82.744 227.541 83.64V87H226.017V83.784C226.017 83.272 225.913 82.88 225.705 82.608C225.505 82.336 225.185 82.2 224.745 82.2C224.313 82.2 223.953 82.352 223.665 82.656C223.385 82.96 223.245 83.384 223.245 83.928V87H221.709ZM230.701 87.144C230.189 87.144 229.769 87.064 229.441 86.904C229.113 86.736 228.869 86.516 228.709 86.244C228.549 85.972 228.469 85.672 228.469 85.344C228.469 84.792 228.685 84.344 229.117 84C229.549 83.656 230.197 83.484 231.061 83.484H232.573V83.34C232.573 82.932 232.457 82.632 232.225 82.44C231.993 82.248 231.705 82.152 231.361 82.152C231.049 82.152 230.777 82.228 230.545 82.38C230.313 82.524 230.169 82.74 230.113 83.028H228.613C228.653 82.596 228.797 82.22 229.045 81.9C229.301 81.58 229.629 81.336 230.029 81.168C230.429 80.992 230.877 80.904 231.373 80.904C232.221 80.904 232.889 81.116 233.377 81.54C233.865 81.964 234.109 82.564 234.109 83.34V87H232.801L232.657 86.04C232.481 86.36 232.233 86.624 231.913 86.832C231.601 87.04 231.197 87.144 230.701 87.144ZM231.049 85.944C231.489 85.944 231.829 85.8 232.069 85.512C232.317 85.224 232.473 84.868 232.537 84.444H231.229C230.821 84.444 230.529 84.52 230.353 84.672C230.177 84.816 230.089 84.996 230.089 85.212C230.089 85.444 230.177 85.624 230.353 85.752C230.529 85.88 230.761 85.944 231.049 85.944ZM237.785 87C237.161 87 236.661 86.848 236.285 86.544C235.909 86.24 235.721 85.7 235.721 84.924V82.332H234.701V81.048H235.721L235.901 79.452H237.257V81.048H238.865V82.332H237.257V84.936C237.257 85.224 237.317 85.424 237.437 85.536C237.565 85.64 237.781 85.692 238.085 85.692H238.829V87H237.785ZM239.536 81.552L240.196 78.6H241.816L240.592 81.552H239.536ZM244.479 87.144C243.951 87.144 243.487 87.06 243.087 86.892C242.687 86.716 242.367 86.476 242.127 86.172C241.887 85.868 241.743 85.516 241.695 85.116H243.243C243.291 85.348 243.419 85.548 243.627 85.716C243.843 85.876 244.119 85.956 244.455 85.956C244.791 85.956 245.035 85.888 245.187 85.752C245.347 85.616 245.427 85.46 245.427 85.284C245.427 85.028 245.315 84.856 245.091 84.768C244.867 84.672 244.555 84.58 244.155 84.492C243.899 84.436 243.639 84.368 243.375 84.288C243.111 84.208 242.867 84.108 242.643 83.988C242.427 83.86 242.251 83.7 242.115 83.508C241.979 83.308 241.911 83.064 241.911 82.776C241.911 82.248 242.119 81.804 242.535 81.444C242.959 81.084 243.551 80.904 244.311 80.904C245.015 80.904 245.575 81.068 245.991 81.396C246.415 81.724 246.667 82.176 246.747 82.752H245.295C245.207 82.312 244.875 82.092 244.299 82.092C244.011 82.092 243.787 82.148 243.627 82.26C243.475 82.372 243.399 82.512 243.399 82.68C243.399 82.856 243.515 82.996 243.747 83.1C243.979 83.204 244.287 83.3 244.671 83.388C245.087 83.484 245.467 83.592 245.811 83.712C246.163 83.824 246.443 83.996 246.651 84.228C246.859 84.452 246.963 84.776 246.963 85.2C246.971 85.568 246.875 85.9 246.675 86.196C246.475 86.492 246.187 86.724 245.811 86.892C245.435 87.06 244.991 87.144 244.479 87.144ZM250.463 87V78.36H251.999V81.96C252.199 81.632 252.467 81.376 252.803 81.192C253.147 81 253.539 80.904 253.979 80.904C254.715 80.904 255.283 81.136 255.683 81.6C256.091 82.064 256.295 82.744 256.295 83.64V87H254.771V83.784C254.771 83.272 254.667 82.88 254.459 82.608C254.259 82.336 253.939 82.2 253.499 82.2C253.067 82.2 252.707 82.352 252.419 82.656C252.139 82.96 251.999 83.384 251.999 83.928V87H250.463ZM259.455 87.144C258.943 87.144 258.523 87.064 258.195 86.904C257.867 86.736 257.623 86.516 257.463 86.244C257.303 85.972 257.223 85.672 257.223 85.344C257.223 84.792 257.439 84.344 257.871 84C258.303 83.656 258.951 83.484 259.815 83.484H261.327V83.34C261.327 82.932 261.211 82.632 260.979 82.44C260.747 82.248 260.459 82.152 260.115 82.152C259.803 82.152 259.531 82.228 259.299 82.38C259.067 82.524 258.923 82.74 258.867 83.028H257.367C257.407 82.596 257.551 82.22 257.799 81.9C258.055 81.58 258.383 81.336 258.783 81.168C259.183 80.992 259.631 80.904 260.127 80.904C260.975 80.904 261.643 81.116 262.131 81.54C262.619 81.964 262.863 82.564 262.863 83.34V87H261.555L261.411 86.04C261.235 86.36 260.987 86.624 260.667 86.832C260.355 87.04 259.951 87.144 259.455 87.144ZM259.803 85.944C260.243 85.944 260.583 85.8 260.823 85.512C261.071 85.224 261.227 84.868 261.291 84.444H259.983C259.575 84.444 259.283 84.52 259.107 84.672C258.931 84.816 258.843 84.996 258.843 85.212C258.843 85.444 258.931 85.624 259.107 85.752C259.283 85.88 259.515 85.944 259.803 85.944ZM263.969 89.64V81.048H265.337L265.505 81.9C265.697 81.636 265.949 81.404 266.261 81.204C266.581 81.004 266.993 80.904 267.497 80.904C268.057 80.904 268.557 81.04 268.997 81.312C269.437 81.584 269.785 81.956 270.041 82.428C270.297 82.9 270.425 83.436 270.425 84.036C270.425 84.636 270.297 85.172 270.041 85.644C269.785 86.108 269.437 86.476 268.997 86.748C268.557 87.012 268.057 87.144 267.497 87.144C267.049 87.144 266.657 87.06 266.321 86.892C265.985 86.724 265.713 86.488 265.505 86.184V89.64H263.969ZM267.173 85.8C267.661 85.8 268.065 85.636 268.385 85.308C268.705 84.98 268.865 84.556 268.865 84.036C268.865 83.516 268.705 83.088 268.385 82.752C268.065 82.416 267.661 82.248 267.173 82.248C266.677 82.248 266.269 82.416 265.949 82.752C265.637 83.08 265.481 83.504 265.481 84.024C265.481 84.544 265.637 84.972 265.949 85.308C266.269 85.636 266.677 85.8 267.173 85.8ZM271.437 89.64V81.048H272.805L272.973 81.9C273.165 81.636 273.417 81.404 273.729 81.204C274.049 81.004 274.461 80.904 274.965 80.904C275.525 80.904 276.025 81.04 276.465 81.312C276.905 81.584 277.253 81.956 277.509 82.428C277.765 82.9 277.893 83.436 277.893 84.036C277.893 84.636 277.765 85.172 277.509 85.644C277.253 86.108 276.905 86.476 276.465 86.748C276.025 87.012 275.525 87.144 274.965 87.144C274.517 87.144 274.125 87.06 273.789 86.892C273.453 86.724 273.181 86.488 272.973 86.184V89.64H271.437ZM274.641 85.8C275.129 85.8 275.533 85.636 275.853 85.308C276.173 84.98 276.333 84.556 276.333 84.036C276.333 83.516 276.173 83.088 275.853 82.752C275.533 82.416 275.129 82.248 274.641 82.248C274.145 82.248 273.737 82.416 273.417 82.752C273.105 83.08 272.949 83.504 272.949 84.024C272.949 84.544 273.105 84.972 273.417 85.308C273.737 85.636 274.145 85.8 274.641 85.8ZM281.797 87.144C281.197 87.144 280.665 87.016 280.201 86.76C279.737 86.504 279.373 86.144 279.109 85.68C278.845 85.216 278.713 84.68 278.713 84.072C278.713 83.456 278.841 82.908 279.097 82.428C279.361 81.948 279.721 81.576 280.177 81.312C280.641 81.04 281.185 80.904 281.809 80.904C282.393 80.904 282.909 81.032 283.357 81.288C283.805 81.544 284.153 81.896 284.401 82.344C284.657 82.784 284.785 83.276 284.785 83.82C284.785 83.908 284.781 84 284.773 84.096C284.773 84.192 284.769 84.292 284.761 84.396H280.237C280.269 84.86 280.429 85.224 280.717 85.488C281.013 85.752 281.369 85.884 281.785 85.884C282.097 85.884 282.357 85.816 282.565 85.68C282.781 85.536 282.941 85.352 283.045 85.128H284.605C284.493 85.504 284.305 85.848 284.041 86.16C283.785 86.464 283.465 86.704 283.081 86.88C282.705 87.056 282.277 87.144 281.797 87.144ZM281.809 82.152C281.433 82.152 281.101 82.26 280.813 82.476C280.525 82.684 280.341 83.004 280.261 83.436H283.225C283.201 83.044 283.057 82.732 282.793 82.5C282.529 82.268 282.201 82.152 281.809 82.152ZM285.717 87V81.048H287.073L287.193 82.056C287.377 81.704 287.641 81.424 287.985 81.216C288.337 81.008 288.749 80.904 289.221 80.904C289.957 80.904 290.529 81.136 290.937 81.6C291.345 82.064 291.549 82.744 291.549 83.64V87H290.013V83.784C290.013 83.272 289.909 82.88 289.701 82.608C289.493 82.336 289.169 82.2 288.729 82.2C288.297 82.2 287.941 82.352 287.661 82.656C287.389 82.96 287.253 83.384 287.253 83.928V87H285.717ZM293.486 80.124C293.206 80.124 292.974 80.04 292.79 79.872C292.614 79.704 292.526 79.492 292.526 79.236C292.526 78.98 292.614 78.772 292.79 78.612C292.974 78.444 293.206 78.36 293.486 78.36C293.766 78.36 293.994 78.444 294.17 78.612C294.354 78.772 294.446 78.98 294.446 79.236C294.446 79.492 294.354 79.704 294.17 79.872C293.994 80.04 293.766 80.124 293.486 80.124ZM292.718 87V81.048H294.254V87H292.718ZM295.497 87V81.048H296.853L296.973 82.056C297.157 81.704 297.421 81.424 297.765 81.216C298.117 81.008 298.529 80.904 299.001 80.904C299.737 80.904 300.309 81.136 300.717 81.6C301.125 82.064 301.329 82.744 301.329 83.64V87H299.793V83.784C299.793 83.272 299.689 82.88 299.481 82.608C299.273 82.336 298.949 82.2 298.509 82.2C298.077 82.2 297.721 82.352 297.441 82.656C297.169 82.96 297.033 83.384 297.033 83.928V87H295.497ZM304.958 85.224C304.67 85.224 304.402 85.192 304.154 85.128L303.71 85.572C303.846 85.644 304.03 85.704 304.262 85.752C304.494 85.8 304.87 85.848 305.39 85.896C306.182 85.968 306.758 86.156 307.118 86.46C307.478 86.764 307.658 87.184 307.658 87.72C307.658 88.072 307.562 88.404 307.37 88.716C307.178 89.036 306.882 89.292 306.482 89.484C306.082 89.684 305.57 89.784 304.946 89.784C304.098 89.784 303.414 89.624 302.894 89.304C302.374 88.992 302.114 88.52 302.114 87.888C302.114 87.352 302.374 86.888 302.894 86.496C302.734 86.424 302.594 86.348 302.474 86.268C302.362 86.188 302.262 86.104 302.174 86.016V85.74L303.218 84.636C302.754 84.228 302.522 83.704 302.522 83.064C302.522 82.664 302.618 82.3 302.81 81.972C303.01 81.644 303.29 81.384 303.65 81.192C304.01 81 304.446 80.904 304.958 80.904C305.294 80.904 305.606 80.952 305.894 81.048H308.15V81.984L307.13 82.056C307.29 82.36 307.37 82.696 307.37 83.064C307.37 83.464 307.274 83.828 307.082 84.156C306.89 84.484 306.61 84.744 306.242 84.936C305.882 85.128 305.454 85.224 304.958 85.224ZM304.958 84.048C305.27 84.048 305.526 83.964 305.726 83.796C305.934 83.628 306.038 83.388 306.038 83.076C306.038 82.764 305.934 82.524 305.726 82.356C305.526 82.188 305.27 82.104 304.958 82.104C304.63 82.104 304.366 82.188 304.166 82.356C303.966 82.524 303.866 82.764 303.866 83.076C303.866 83.388 303.966 83.628 304.166 83.796C304.366 83.964 304.63 84.048 304.958 84.048ZM303.518 87.732C303.518 88.028 303.654 88.248 303.926 88.392C304.206 88.544 304.546 88.62 304.946 88.62C305.33 88.62 305.642 88.54 305.882 88.38C306.122 88.228 306.242 88.02 306.242 87.756C306.242 87.54 306.162 87.36 306.002 87.216C305.85 87.072 305.542 86.984 305.078 86.952C304.75 86.928 304.446 86.892 304.166 86.844C303.934 86.972 303.766 87.112 303.662 87.264C303.566 87.416 303.518 87.572 303.518 87.732ZM314.062 87C313.438 87 312.938 86.848 312.562 86.544C312.186 86.24 311.998 85.7 311.998 84.924V82.332H310.978V81.048H311.998L312.178 79.452H313.534V81.048H315.142V82.332H313.534V84.936C313.534 85.224 313.594 85.424 313.714 85.536C313.842 85.64 314.058 85.692 314.362 85.692H315.106V87H314.062ZM318.804 87.144C318.228 87.144 317.708 87.012 317.244 86.748C316.788 86.484 316.424 86.12 316.152 85.656C315.888 85.184 315.756 84.64 315.756 84.024C315.756 83.408 315.892 82.868 316.164 82.404C316.436 81.932 316.8 81.564 317.256 81.3C317.72 81.036 318.24 80.904 318.816 80.904C319.384 80.904 319.896 81.036 320.352 81.3C320.816 81.564 321.18 81.932 321.444 82.404C321.716 82.868 321.852 83.408 321.852 84.024C321.852 84.64 321.716 85.184 321.444 85.656C321.18 86.12 320.816 86.484 320.352 86.748C319.888 87.012 319.372 87.144 318.804 87.144ZM318.804 85.812C319.204 85.812 319.552 85.664 319.848 85.368C320.144 85.064 320.292 84.616 320.292 84.024C320.292 83.432 320.144 82.988 319.848 82.692C319.552 82.388 319.208 82.236 318.816 82.236C318.408 82.236 318.056 82.388 317.76 82.692C317.472 82.988 317.328 83.432 317.328 84.024C317.328 84.616 317.472 85.064 317.76 85.368C318.056 85.664 318.404 85.812 318.804 85.812ZM325.601 87.144C325.041 87.144 324.541 87.008 324.101 86.736C323.661 86.464 323.313 86.092 323.057 85.62C322.801 85.148 322.673 84.612 322.673 84.012C322.673 83.412 322.801 82.88 323.057 82.416C323.313 81.944 323.661 81.576 324.101 81.312C324.541 81.04 325.041 80.904 325.601 80.904C326.049 80.904 326.441 80.988 326.777 81.156C327.113 81.324 327.385 81.56 327.593 81.864V78.36H329.129V87H327.761L327.593 86.148C327.401 86.412 327.145 86.644 326.825 86.844C326.513 87.044 326.105 87.144 325.601 87.144ZM325.925 85.8C326.421 85.8 326.825 85.636 327.137 85.308C327.457 84.972 327.617 84.544 327.617 84.024C327.617 83.504 327.457 83.08 327.137 82.752C326.825 82.416 326.421 82.248 325.925 82.248C325.437 82.248 325.033 82.412 324.713 82.74C324.393 83.068 324.233 83.492 324.233 84.012C324.233 84.532 324.393 84.96 324.713 85.296C325.033 85.632 325.437 85.8 325.925 85.8ZM332.385 87.144C331.873 87.144 331.453 87.064 331.125 86.904C330.797 86.736 330.553 86.516 330.393 86.244C330.233 85.972 330.153 85.672 330.153 85.344C330.153 84.792 330.369 84.344 330.801 84C331.233 83.656 331.881 83.484 332.745 83.484H334.257V83.34C334.257 82.932 334.141 82.632 333.909 82.44C333.677 82.248 333.389 82.152 333.045 82.152C332.733 82.152 332.461 82.228 332.229 82.38C331.997 82.524 331.853 82.74 331.797 83.028H330.297C330.337 82.596 330.481 82.22 330.729 81.9C330.985 81.58 331.313 81.336 331.713 81.168C332.113 80.992 332.561 80.904 333.057 80.904C333.905 80.904 334.573 81.116 335.061 81.54C335.549 81.964 335.793 82.564 335.793 83.34V87H334.485L334.341 86.04C334.165 86.36 333.917 86.624 333.597 86.832C333.285 87.04 332.881 87.144 332.385 87.144ZM332.733 85.944C333.173 85.944 333.513 85.8 333.753 85.512C334.001 85.224 334.157 84.868 334.221 84.444H332.913C332.505 84.444 332.213 84.52 332.037 84.672C331.861 84.816 331.773 84.996 331.773 85.212C331.773 85.444 331.861 85.624 332.037 85.752C332.213 85.88 332.445 85.944 332.733 85.944ZM337.444 89.64L338.824 86.604H338.464L336.148 81.048H337.816L339.484 85.236L341.224 81.048H342.856L339.076 89.64H337.444Z" fill="#465876"/>
<rect x="100" y="36" width="8" height="8" rx="4" fill="#A8B1CA"/>
<rect x="112" y="38" width="30" height="4" rx="2" fill="#A8B1CA"/>
<rect x="100" y="56" width="8" height="8" rx="4" fill="#4AD382"/>
<rect x="112" y="58" width="25" height="4" rx="2" fill="#4AD382"/>
<rect x="100" y="76" width="8" height="8" rx="4" fill="#A8B1CA"/>
<rect x="112" y="78" width="32" height="4" rx="2" fill="#A8B1CA"/>
<rect x="100" y="96" width="8" height="8" rx="4" fill="#A8B1CA"/>
<rect x="112" y="98" width="18" height="4" rx="2" fill="#A8B1CA"/>
<rect x="100" y="116" width="8" height="8" rx="4" fill="#A8B1CA"/>
<rect x="112" y="118" width="24" height="4" rx="2" fill="#A8B1CA"/>
<rect x="100" y="10" width="46" height="12" rx="6" fill="#F3F4F6"/>
<rect x="479" y="8" width="53" height="16" rx="2" fill="#4AD382"/>
<rect x="432" y="9" width="40" height="14" rx="1" stroke="#4AD382" stroke-width="2"/>
<rect x="91" y="1" width="452" height="282" rx="7" stroke="#132337" stroke-width="2"/>
</g>
<g filter="url(#filter6_d)">
<g filter="url(#filter7_d)">
<rect x="20" y="114" width="114" height="228" rx="16" fill="#F3F4F6"/>
<rect x="22" y="116" width="110" height="224" rx="14" stroke="#132337" stroke-width="4"/>
</g>
<rect x="48.5" y="324.9" width="57" height="5.7" rx="2" fill="#132337"/>
<rect x="48.5" y="114" width="57" height="17.1" rx="4" fill="#132337"/>
</g>
<path d="M82.9087 211.626L82.9087 211.626C80.4753 206.759 73.5397 206.757 71.1046 211.624C71.1046 211.624 71.1046 211.624 71.1046 211.624L57.6812 238.451C55.4837 242.843 58.6679 248.025 63.5826 248.025H90.4174C95.3311 248.025 98.5152 242.845 96.3199 238.454L94.9782 239.124L96.3199 238.454L82.9087 211.626Z" stroke="#DC2626" stroke-width="3" stroke-linecap="round" stroke-linejoin="round"/>
<path d="M77 222.3V229.425" stroke="#DC2626" stroke-width="4" stroke-linecap="round" stroke-linejoin="round"/>
<path d="M76.9999 240.825C78.5739 240.825 79.8499 239.549 79.8499 237.975C79.8499 236.401 78.5739 235.125 76.9999 235.125C75.4259 235.125 74.1499 236.401 74.1499 237.975C74.1499 239.549 75.4259 240.825 76.9999 240.825Z" fill="#DC2626"/>
<defs>
<filter id="filter0_d" x="70" y="0" width="494" height="338.672" filterUnits="userSpaceOnUse" color-interpolation-filters="sRGB">
<feFlood flood-opacity="0" result="BackgroundImageFix"/>
<feColorMatrix in="SourceAlpha" type="matrix" values="0 0 0 0 0 0 0 0 0 0 0 0 0 0 0 0 0 0 127 0"/>
<feMorphology radius="5" operator="erode" in="SourceAlpha" result="effect1_dropShadow"/>
<feOffset dy="20"/>
<feGaussianBlur stdDeviation="12.5"/>
<feColorMatrix type="matrix" values="0 0 0 0 0 0 0 0 0 0 0 0 0 0 0 0 0 0 0.1 0"/>
<feBlend mode="normal" in2="BackgroundImageFix" result="effect1_dropShadow"/>
<feBlend mode="normal" in="SourceGraphic" in2="effect1_dropShadow" result="shape"/>
</filter>
<filter id="filter1_d" x="162" y="204.139" width="352" height="116.533" filterUnits="userSpaceOnUse" color-interpolation-filters="sRGB">
<feFlood flood-opacity="0" result="BackgroundImageFix"/>
<feColorMatrix in="SourceAlpha" type="matrix" values="0 0 0 0 0 0 0 0 0 0 0 0 0 0 0 0 0 0 127 0"/>
<feMorphology radius="3" operator="erode" in="SourceAlpha" result="effect1_dropShadow"/>
<feOffset dy="10"/>
<feGaussianBlur stdDeviation="7.5"/>
<feColorMatrix type="matrix" values="0 0 0 0 0 0 0 0 0 0 0 0 0 0 0 0 0 0 0.1 0"/>
<feBlend mode="normal" in2="BackgroundImageFix" result="effect1_dropShadow"/>
<feBlend mode="normal" in="SourceGraphic" in2="effect1_dropShadow" result="shape"/>
</filter>
<filter id="filter2_d" x="299" y="110.139" width="214.781" height="98" filterUnits="userSpaceOnUse" color-interpolation-filters="sRGB">
<feFlood flood-opacity="0" result="BackgroundImageFix"/>
<feColorMatrix in="SourceAlpha" type="matrix" values="0 0 0 0 0 0 0 0 0 0 0 0 0 0 0 0 0 0 127 0"/>
<feMorphology radius="3" operator="erode" in="SourceAlpha" result="effect1_dropShadow"/>
<feOffset dy="10"/>
<feGaussianBlur stdDeviation="7.5"/>
<feColorMatrix type="matrix" values="0 0 0 0 0 0 0 0 0 0 0 0 0 0 0 0 0 0 0.1 0"/>
<feBlend mode="normal" in2="BackgroundImageFix" result="effect1_dropShadow"/>
<feBlend mode="normal" in="SourceGraphic" in2="effect1_dropShadow" result="shape"/>
</filter>
<filter id="filter3_d" x="306" y="111.139" width="200.781" height="84" filterUnits="userSpaceOnUse" color-interpolation-filters="sRGB">
<feFlood flood-opacity="0" result="BackgroundImageFix"/>
<feColorMatrix in="SourceAlpha" type="matrix" values="0 0 0 0 0 0 0 0 0 0 0 0 0 0 0 0 0 0 127 0"/>
<feMorphology radius="1" operator="erode" in="SourceAlpha" result="effect1_dropShadow"/>
<feOffset dy="4"/>
<feGaussianBlur stdDeviation="3"/>
<feColorMatrix type="matrix" values="0 0 0 0 0 0 0 0 0 0 0 0 0 0 0 0 0 0 0.1 0"/>
<feBlend mode="normal" in2="BackgroundImageFix" result="effect1_dropShadow"/>
<feBlend mode="normal" in="SourceGraphic" in2="effect1_dropShadow" result="shape"/>
</filter>
<filter id="filter4_d" x="162" y="110" width="141" height="98.1386" filterUnits="userSpaceOnUse" color-interpolation-filters="sRGB">
<feFlood flood-opacity="0" result="BackgroundImageFix"/>
<feColorMatrix in="SourceAlpha" type="matrix" values="0 0 0 0 0 0 0 0 0 0 0 0 0 0 0 0 0 0 127 0"/>
<feMorphology radius="3" operator="erode" in="SourceAlpha" result="effect1_dropShadow"/>
<feOffset dy="10"/>
<feGaussianBlur stdDeviation="7.5"/>
<feColorMatrix type="matrix" values="0 0 0 0 0 0 0 0 0 0 0 0 0 0 0 0 0 0 0.1 0"/>
<feBlend mode="normal" in2="BackgroundImageFix" result="effect1_dropShadow"/>
<feBlend mode="normal" in="SourceGraphic" in2="effect1_dropShadow" result="shape"/>
</filter>
<filter id="filter5_d" x="169" y="111" width="127" height="84.1386" filterUnits="userSpaceOnUse" color-interpolation-filters="sRGB">
<feFlood flood-opacity="0" result="BackgroundImageFix"/>
<feColorMatrix in="SourceAlpha" type="matrix" values="0 0 0 0 0 0 0 0 0 0 0 0 0 0 0 0 0 0 127 0"/>
<feMorphology radius="1" operator="erode" in="SourceAlpha" result="effect1_dropShadow"/>
<feOffset dy="4"/>
<feGaussianBlur stdDeviation="3"/>
<feColorMatrix type="matrix" values="0 0 0 0 0 0 0 0 0 0 0 0 0 0 0 0 0 0 0.1 0"/>
<feBlend mode="normal" in2="BackgroundImageFix" result="effect1_dropShadow"/>
<feBlend mode="normal" in="SourceGraphic" in2="effect1_dropShadow" result="shape"/>
</filter>
<filter id="filter6_d" x="8" y="112" width="138" height="252" filterUnits="userSpaceOnUse" color-interpolation-filters="sRGB">
<feFlood flood-opacity="0" result="BackgroundImageFix"/>
<feColorMatrix in="SourceAlpha" type="matrix" values="0 0 0 0 0 0 0 0 0 0 0 0 0 0 0 0 0 0 127 0"/>
<feMorphology radius="3" operator="erode" in="SourceAlpha" result="effect1_dropShadow"/>
<feOffset dy="10"/>
<feGaussianBlur stdDeviation="7.5"/>
<feColorMatrix type="matrix" values="0 0 0 0 0 0 0 0 0 0 0 0 0 0 0 0 0 0 0.1 0"/>
<feBlend mode="normal" in2="BackgroundImageFix" result="effect1_dropShadow"/>
<feBlend mode="normal" in="SourceGraphic" in2="effect1_dropShadow" result="shape"/>
</filter>
<filter id="filter7_d" x="0" y="114" width="154" height="268" filterUnits="userSpaceOnUse" color-interpolation-filters="sRGB">
<feFlood flood-opacity="0" result="BackgroundImageFix"/>
<feColorMatrix in="SourceAlpha" type="matrix" values="0 0 0 0 0 0 0 0 0 0 0 0 0 0 0 0 0 0 127 0"/>
<feMorphology radius="5" operator="erode" in="SourceAlpha" result="effect1_dropShadow"/>
<feOffset dy="20"/>
<feGaussianBlur stdDeviation="12.5"/>
<feColorMatrix type="matrix" values="0 0 0 0 0 0 0 0 0 0 0 0 0 0 0 0 0 0 0.1 0"/>
<feBlend mode="normal" in2="BackgroundImageFix" result="effect1_dropShadow"/>
<feBlend mode="normal" in="SourceGraphic" in2="effect1_dropShadow" result="shape"/>
</filter>
<linearGradient id="paint0_linear" x1="258.564" y1="182.663" x2="179.213" y2="182.663" gradientUnits="userSpaceOnUse">
<stop stop-color="#3AACE2"/>
<stop offset="1" stop-color="#3AACE2" stop-opacity="0.5"/>
</linearGradient>
</defs>
</svg>
