<svg width="185" height="64" viewBox="0 0 185 64" fill="none" xmlns="http://www.w3.org/2000/svg">
<path d="M25.9682 24.2181C29.6161 24.2133 33.1221 25.6306 35.7419 28.169L44.3126 19.5965V0H32.567V12.7215C28.737 11.6905 24.721 11.5548 20.8301 12.3248C16.9392 13.0948 13.2777 14.7499 10.1291 17.162C6.9804 19.5741 4.42909 22.6785 2.67264 26.2347C0.916184 29.791 0.00170525 33.7038 0 37.6702C0 37.7628 0 37.8519 0 37.9446H11.8964C11.9884 34.2733 13.5112 30.7832 16.1401 28.2189C18.7689 25.6545 22.2957 24.2188 25.9682 24.2181Z" fill="#4AD382"/>
<path d="M51.6856 37.8789H39.8001C39.7331 40.6117 38.8717 43.2659 37.3211 45.5172C35.7705 47.7684 33.5978 49.5194 31.0684 50.5562C28.539 51.593 25.7624 51.8707 23.0778 51.3554C20.3932 50.8401 17.9167 49.5541 15.951 47.6545L7.38031 56.2251C10.97 59.8969 15.5723 62.4158 20.5999 63.4603C25.6275 64.5048 30.8523 64.0276 35.6074 62.0895C40.3626 60.1514 44.4324 56.8403 47.2974 52.579C50.1624 48.3176 51.6927 43.2992 51.6929 38.1642C51.6929 38.0625 51.6874 37.9716 51.6856 37.8789Z" fill="#4AD382"/>
<path d="M80.9123 11.4204V28.5035H78.5334V26.7934C78.1038 27.3364 77.5699 27.7881 76.9632 28.1219C76.2463 28.5377 75.4293 28.7495 74.6006 28.7343C73.5585 28.7489 72.5335 28.4685 71.6438 27.9256C70.7607 27.3807 70.0421 26.6062 69.5647 25.6848C69.045 24.6791 68.7833 23.56 68.8033 22.4281C68.7804 21.2913 69.0421 20.1668 69.5647 19.1569C70.0409 18.2456 70.7501 17.4767 71.6202 16.9288C72.4926 16.3877 73.5014 16.1071 74.5279 16.1201C75.2825 16.1156 76.0294 16.2719 76.7188 16.5787C77.4083 16.8855 78.0244 17.3357 78.5261 17.8993V11.4204H80.9123ZM74.9314 26.6862C75.62 26.7013 76.2972 26.5081 76.8742 26.1319C77.4372 25.752 77.8849 25.2245 78.1681 24.6071C78.4735 23.9207 78.6314 23.1777 78.6314 22.4263C78.6314 21.6749 78.4735 20.932 78.1681 20.2455C77.8816 19.6337 77.4344 19.1111 76.8742 18.7334C76.2982 18.358 75.6224 18.1648 74.935 18.1792C74.2547 18.1666 73.5864 18.3598 73.0177 18.7334C72.4557 19.112 72.0051 19.6341 71.7129 20.2455C71.3992 20.9297 71.2369 21.6736 71.2369 22.4263C71.2369 23.179 71.3992 23.9229 71.7129 24.6071C72.0018 25.2241 72.4528 25.7511 73.0177 26.1319C73.5854 26.5048 74.2523 26.698 74.9314 26.6862Z" fill="white"/>
<path d="M74.6079 28.8959C73.5364 28.9093 72.4827 28.6208 71.5674 28.0636C70.6582 27.5065 69.917 26.7132 69.423 25.7683C68.8914 24.7388 68.623 23.5937 68.6415 22.4352C68.6202 21.2736 68.8888 20.1249 69.423 19.0931C69.9129 18.1571 70.6414 17.3672 71.5347 16.8032C72.4338 16.247 73.4726 15.9583 74.5297 15.9709C75.3672 15.9584 76.1957 16.1453 76.9468 16.5161C77.4669 16.7702 77.9455 17.1017 78.3662 17.4993V11.2676H81.0722V28.6797H78.3734V27.2494C77.9811 27.6524 77.5339 27.9981 77.0449 28.2762C76.3035 28.6991 75.4613 28.9133 74.6079 28.8959ZM74.537 16.2871C73.5391 16.2785 72.5594 16.5546 71.7128 17.0831C70.867 17.617 70.1773 18.3649 69.7137 19.2512C69.2052 20.2369 68.9497 21.3336 68.9704 22.4425C68.9521 23.5483 69.2074 24.6415 69.7137 25.6247C70.179 26.5202 70.8771 27.2736 71.7346 27.8055C72.6002 28.3304 73.5957 28.6018 74.6079 28.5888C75.4037 28.596 76.1866 28.3881 76.8741 27.9872C77.4611 27.6629 77.9785 27.2263 78.3971 26.7024L78.686 26.3135V28.3507H80.7451V11.5802H78.6915V18.3553L78.408 18.0191C77.9218 17.4735 77.3249 17.0379 76.6571 16.7411C75.9893 16.4443 75.2659 16.2933 74.5352 16.298L74.537 16.2871ZM74.9314 26.8405C74.2218 26.851 73.5255 26.6484 72.9323 26.2589C72.3445 25.8617 71.8744 25.3137 71.5711 24.6724C71.249 23.9667 71.0823 23.2 71.0823 22.4243C71.0823 21.6486 71.249 20.8819 71.5711 20.1763C71.8772 19.5402 72.347 18.997 72.9323 18.6024C73.5256 18.2132 74.2219 18.0106 74.9314 18.0209C75.6504 18.0072 76.357 18.2098 76.9595 18.6024C77.5438 18.9954 78.01 19.5401 78.308 20.1781C78.6231 20.885 78.786 21.6503 78.786 22.4243C78.786 23.1983 78.6231 23.9636 78.308 24.6706C78.0129 25.3138 77.5464 25.8634 76.9595 26.2589C76.3576 26.6535 75.651 26.8581 74.9314 26.846V26.8405ZM74.9314 18.3425C74.2828 18.3304 73.6457 18.5141 73.1031 18.8696C72.5637 19.2335 72.1319 19.7356 71.8528 20.3235C71.5523 20.9847 71.3968 21.7026 71.3968 22.4289C71.3968 23.1552 71.5523 23.8731 71.8528 24.5343C72.1314 25.1224 72.5633 25.6246 73.1031 25.9882C73.6455 26.3441 74.2828 26.5278 74.9314 26.5152C75.587 26.5296 76.2318 26.3459 76.7814 25.9882C77.319 25.6257 77.7471 25.1228 78.019 24.5343C78.3138 23.8709 78.4661 23.153 78.4661 22.427C78.4661 21.7011 78.3138 20.9832 78.019 20.3198C77.7464 19.7317 77.3185 19.229 76.7814 18.8659C76.2297 18.5146 75.5852 18.3367 74.9314 18.3553V18.3425Z" fill="white"/>
<path d="M94.608 26.9169H94.5843C93.9888 27.4602 93.2998 27.8912 92.5507 28.1891C91.5867 28.5931 90.5456 28.7805 89.5012 28.7381C88.4567 28.6958 87.4343 28.4246 86.5062 27.9437C85.5672 27.4355 84.7881 26.676 84.2563 25.7502C83.7077 24.7832 83.4284 23.6868 83.4476 22.5752C83.4476 21.2195 83.7323 20.0606 84.3017 19.0986C84.8397 18.1671 85.6221 17.4004 86.5643 16.8815C87.5055 16.366 88.5627 16.0995 89.6357 16.1073C90.6112 16.0961 91.5706 16.356 92.4071 16.8578C93.2401 17.36 93.9254 18.0735 94.3935 18.926C94.9027 19.8657 95.1594 20.9215 95.1386 21.9901L95.115 23.006H85.8319C85.9262 24.0151 86.4107 24.9475 87.1822 25.6048C87.9431 26.2445 88.9093 26.5637 90.0809 26.5625C90.929 26.5625 91.6142 26.405 92.1364 26.09C92.5916 25.8236 93.0238 25.5197 93.4285 25.1813L94.608 26.9169ZM89.6411 18.3026C88.8045 18.2831 87.9797 18.5032 87.264 18.9369C86.5855 19.3597 86.1385 20.0867 85.9228 21.1177H92.7125V20.956C92.6751 20.4536 92.4948 19.9725 92.1927 19.5693C91.897 19.1738 91.5129 18.8529 91.0712 18.632C90.6295 18.4111 90.1423 18.2965 89.6484 18.2972L89.6411 18.3026Z" fill="white"/>
<path d="M89.85 28.8958C88.6608 28.9191 87.4854 28.6382 86.4352 28.0798C85.4704 27.5563 84.6696 26.7756 84.1217 25.8245C83.5602 24.8327 83.2735 23.7091 83.2912 22.5696C83.2912 21.192 83.5874 19.9944 84.169 19.0112C84.7223 18.0554 85.526 17.2687 86.4934 16.7359C87.4579 16.2076 88.5413 15.9343 89.641 15.9417C90.6487 15.9315 91.6395 16.2007 92.5034 16.7195C93.3594 17.2364 94.064 17.9698 94.5461 18.8458C95.0642 19.8112 95.3234 20.8944 95.2985 21.9898L95.2712 23.1657H86.0172C86.1414 24.0679 86.5945 24.8924 87.2894 25.481C88.0163 26.0916 88.9577 26.4024 90.0845 26.4024C90.8968 26.4024 91.562 26.2515 92.0563 25.9517C92.5049 25.6894 92.9304 25.3897 93.3284 25.0557L93.4647 24.9376L94.9186 27.0694H94.6478C93.3141 28.224 91.614 28.868 89.85 28.8867V28.8958ZM89.641 16.2634C88.5953 16.2554 87.5649 16.515 86.6478 17.0176C85.7311 17.5229 84.9695 18.2687 84.4452 19.1748C83.9 20.1089 83.6128 21.2502 83.6128 22.5696C83.5966 23.651 83.8682 24.7172 84.3998 25.6591C84.9166 26.5573 85.6713 27.2956 86.5806 27.7927C87.4873 28.2595 88.4851 28.5225 89.504 28.5633C90.523 28.6041 91.5386 28.4217 92.4797 28.0289C93.1724 27.7499 93.8142 27.3581 94.3789 26.8694L93.3866 25.4156C93.0139 25.7141 92.6204 25.9856 92.209 26.2279C91.6637 26.5587 90.9368 26.7241 90.0717 26.7241C88.8686 26.7241 87.8582 26.3897 87.0695 25.7281C86.2675 25.0449 85.763 24.0763 85.6628 23.0276L85.6392 22.8458H94.9495L94.9695 21.9862C94.9893 20.9437 94.7388 19.9137 94.2426 18.9967C93.7861 18.1729 93.1211 17.4835 92.3144 16.9976C91.507 16.514 90.5821 16.2618 89.641 16.2688V16.2634ZM92.8668 21.2793H85.7264L85.7664 21.0866C85.99 20.0162 86.4643 19.2475 87.1785 18.8004C87.92 18.3511 88.7742 18.1223 89.641 18.1407C90.161 18.1392 90.6741 18.2592 91.1395 18.4911C91.6049 18.723 92.0097 19.0604 92.3216 19.4764C92.6388 19.9037 92.8279 20.4124 92.8668 20.943V21.2793ZM86.1172 20.9594H92.5452C92.5076 20.492 92.3387 20.0447 92.0581 19.6691C91.7778 19.2938 91.413 18.9899 90.9931 18.7822C90.5712 18.5712 90.1055 18.4623 89.6338 18.4642C88.8286 18.4499 88.0359 18.6642 87.3475 19.0821C86.7551 19.4455 86.3443 20.078 86.1244 20.9594H86.1172Z" fill="white"/>
<path d="M98.9041 16.3853L102.437 25.045L106.108 16.3853H108.558L103.177 28.5107H101.467L96.3398 16.3853H98.9041Z" fill="white"/>
<path d="M103.28 28.6708H101.361L96.0909 16.2256H98.9986L102.428 24.6272L105.99 16.2256H108.805L103.28 28.6708ZM101.574 28.351H103.071L108.314 16.5382H106.215L102.433 25.4559L98.7951 16.5382H96.5816L101.574 28.351Z" fill="white"/>
<path d="M112.322 13.752C111.782 13.752 111.382 13.6139 111.12 13.3376C110.851 13.0402 110.71 12.6483 110.728 12.2472C110.727 11.8644 110.867 11.4945 111.12 11.2077C111.382 10.9012 111.782 10.7473 112.322 10.7461C112.867 10.7461 113.261 10.8842 113.523 11.1623C113.793 11.4594 113.934 11.8516 113.915 12.2527C113.917 12.6356 113.777 13.0056 113.523 13.2922C113.261 13.5993 112.858 13.752 112.322 13.752ZM113.547 28.5107H111.168V16.3853H113.547V28.5107Z" fill="white"/>
<path d="M113.707 28.6704H111.006V16.2251H113.707V28.6704ZM111.328 28.3505H113.385V16.5377H111.328V28.3505ZM112.322 13.9153C111.738 13.9153 111.295 13.7571 111.004 13.4482C110.707 13.1224 110.551 12.6928 110.568 12.2524C110.567 11.8315 110.72 11.4248 110.999 11.1093C111.291 10.7658 111.735 10.5913 112.322 10.5913C112.909 10.5913 113.347 10.7476 113.639 11.0566C113.936 11.3826 114.092 11.812 114.075 12.2524C114.076 12.6731 113.923 13.0795 113.645 13.3955C113.352 13.7372 112.907 13.9134 112.322 13.9134V13.9153ZM112.322 10.9112C111.827 10.9112 111.475 11.0438 111.242 11.3164C111.01 11.5728 110.88 11.9062 110.879 12.2524C110.87 12.43 110.896 12.6076 110.956 12.7751C111.016 12.9426 111.108 13.0966 111.228 13.2283C111.457 13.47 111.822 13.5918 112.318 13.5918C112.814 13.5918 113.165 13.4591 113.398 13.1865C113.626 12.9286 113.752 12.5953 113.75 12.2506C113.76 12.0719 113.735 11.893 113.675 11.7242C113.615 11.5554 113.523 11.4002 113.403 11.2674C113.176 11.0329 112.812 10.9039 112.322 10.9039V10.9112Z" fill="white"/>
<path d="M118.673 22.4354C118.66 23.1837 118.849 23.9218 119.219 24.5726C119.563 25.1782 120.056 25.6866 120.651 26.0501C121.222 26.4076 121.883 26.5965 122.557 26.5953C123.273 26.6112 123.977 26.4014 124.567 25.9955C125.082 25.6428 125.548 25.2229 125.952 24.747L127.268 26.3645C126.936 26.8188 126.53 27.2134 126.066 27.5312C125.535 27.9056 124.951 28.2007 124.334 28.4072C123.682 28.6309 122.997 28.7439 122.308 28.7416C121.249 28.755 120.207 28.4663 119.306 27.9092C118.413 27.3558 117.684 26.5749 117.192 25.6466C116.683 24.651 116.418 23.5489 116.418 22.4308C116.418 21.3127 116.683 20.2106 117.192 19.215C117.685 18.2909 118.415 17.514 119.306 16.9633C120.207 16.4062 121.249 16.1175 122.308 16.1309C123.349 16.112 124.379 16.3459 125.31 16.8125C126.119 17.2036 126.799 17.8162 127.273 18.5789L125.957 20.1964C125.563 19.6364 125.046 19.174 124.445 18.8443C123.871 18.4912 123.213 18.2962 122.539 18.2791C121.846 18.2713 121.166 18.4604 120.576 18.8243C119.991 19.1856 119.513 19.6954 119.189 20.3018C118.84 20.9581 118.663 21.692 118.673 22.4354Z" fill="white"/>
<path d="M122.308 28.8958C121.218 28.909 120.146 28.6121 119.219 28.0398C118.299 27.4747 117.546 26.675 117.038 25.7227C116.516 24.7034 116.243 23.5747 116.243 22.4296C116.243 21.2845 116.516 20.1558 117.038 19.1366C117.549 18.1881 118.301 17.3914 119.219 16.8267C120.146 16.2544 121.218 15.9575 122.308 15.9707C123.375 15.9521 124.431 16.1922 125.385 16.6704C126.218 17.0736 126.92 17.7035 127.411 18.4878L127.469 18.5841L125.943 20.4632L125.823 20.2815C125.443 19.7432 124.946 19.2983 124.369 18.9803C123.821 18.6422 123.195 18.4541 122.552 18.4351C121.889 18.4274 121.238 18.6076 120.674 18.9548C120.113 19.3013 119.654 19.7905 119.344 20.3724C119.01 21.0065 118.842 21.7148 118.855 22.4314C118.843 23.1513 119.023 23.8614 119.377 24.4887C119.708 25.0705 120.182 25.5593 120.752 25.9098C121.298 26.2488 121.927 26.4288 122.57 26.4296C123.253 26.4445 123.924 26.2442 124.487 25.8571C124.99 25.5132 125.446 25.1038 125.841 24.6395L125.965 24.4887L127.466 26.3515L127.395 26.4514C127.053 26.9201 126.634 27.327 126.155 27.6545C125.611 28.0382 125.014 28.3412 124.383 28.5541C123.715 28.7819 123.014 28.8973 122.308 28.8958ZM122.308 16.2869C121.278 16.2743 120.266 16.5541 119.389 17.0939C118.524 17.6314 117.815 18.3873 117.334 19.2856C116.838 20.2577 116.579 21.3336 116.579 22.4251C116.579 23.5165 116.838 24.5924 117.334 25.5645C117.812 26.4675 118.522 27.2275 119.389 27.7672C120.266 28.3088 121.278 28.5905 122.308 28.5795C122.981 28.5821 123.65 28.4722 124.287 28.2542C124.889 28.0511 125.459 27.7628 125.979 27.3983C126.392 27.1118 126.76 26.7644 127.07 26.3678L125.943 24.9957C125.558 25.4204 125.125 25.7991 124.652 26.1243C124.035 26.5489 123.3 26.7689 122.552 26.7531C121.845 26.755 121.153 26.5592 120.552 26.1879C119.935 25.8097 119.424 25.2814 119.066 24.6522C118.684 23.9766 118.488 23.2112 118.501 22.4351C118.49 21.6644 118.674 20.9036 119.037 20.2233C119.374 19.5928 119.871 19.062 120.478 18.684C121.094 18.3064 121.804 18.1105 122.526 18.1188C123.228 18.1359 123.914 18.3384 124.512 18.7058C125.069 19.015 125.558 19.4313 125.952 19.9307L127.064 18.5659C126.605 17.8743 125.97 17.3183 125.223 16.9557C124.319 16.5032 123.319 16.2756 122.308 16.2924V16.2869Z" fill="white"/>
<path d="M139.92 26.9169H139.896C139.301 27.4598 138.613 27.8908 137.865 28.1891C136.901 28.5925 135.861 28.7798 134.818 28.7378C133.775 28.6957 132.753 28.4253 131.826 27.9455C130.887 27.4369 130.108 26.6767 129.577 25.7502C129.029 24.7832 128.75 23.6868 128.769 22.5752C128.769 21.2195 129.053 20.0606 129.623 19.0986C130.162 18.1674 130.945 17.4009 131.887 16.8815C132.828 16.3658 133.886 16.0993 134.959 16.1073C135.934 16.0961 136.894 16.356 137.73 16.8578C138.562 17.3611 139.247 18.0743 139.716 18.926C140.225 19.8684 140.48 20.9268 140.456 21.9973L140.433 23.0132H131.144C131.238 24.0228 131.723 24.9555 132.496 25.612C133.258 26.2517 134.224 26.571 135.393 26.5698C136.241 26.5698 136.926 26.4123 137.448 26.0973C137.904 25.8308 138.337 25.5269 138.742 25.1886L139.92 26.9169ZM134.955 18.3026C134.118 18.2831 133.292 18.5031 132.576 18.9369C131.898 19.3597 131.451 20.0867 131.237 21.1177H138.026V20.956C137.988 20.4538 137.808 19.9729 137.507 19.5693C137.211 19.1738 136.827 18.8528 136.385 18.632C135.943 18.4111 135.456 18.2965 134.962 18.2972L134.955 18.3026Z" fill="white"/>
<path d="M135.162 28.8957C133.973 28.919 132.798 28.6382 131.747 28.0797C130.783 27.5552 129.983 26.7748 129.434 25.8244C128.873 24.8325 128.587 23.7089 128.605 22.5695C128.605 21.192 128.9 19.9943 129.481 19.0111C130.035 18.0558 130.839 17.2692 131.806 16.7358C132.771 16.2074 133.855 15.934 134.955 15.9416C135.96 15.9324 136.947 16.2016 137.808 16.7195C138.665 17.2362 139.37 17.9696 139.853 18.8458C140.373 19.8108 140.634 20.8938 140.612 21.9898L140.585 23.1656H131.329C131.454 24.0677 131.907 24.8921 132.602 25.4809C133.328 26.0916 134.272 26.4023 135.397 26.4023C136.211 26.4023 136.874 26.2515 137.37 25.9516C137.819 25.6895 138.244 25.3898 138.642 25.0557L138.779 24.9375L140.233 27.0693H139.971C138.637 28.2243 136.936 28.8683 135.171 28.8867L135.162 28.8957ZM134.955 16.2633C133.909 16.2554 132.878 16.515 131.96 17.0175C131.043 17.5246 130.282 18.2723 129.759 19.1802C129.214 20.1125 128.929 21.2556 128.929 22.575C128.912 23.6562 129.183 24.7226 129.714 25.6645C130.232 26.5666 130.99 27.3076 131.904 27.8053C132.81 28.2721 133.808 28.5351 134.826 28.5759C135.845 28.6167 136.86 28.4343 137.801 28.0416C138.494 27.763 139.137 27.3712 139.702 26.8821L138.71 25.4282C138.337 25.7263 137.943 25.9978 137.532 26.2406C136.987 26.5713 136.26 26.7367 135.393 26.7367C134.19 26.7367 133.179 26.4023 132.393 25.7408C131.59 25.058 131.085 24.0892 130.986 23.0402L130.962 22.8585H140.273L140.3 21.9898C140.319 20.9473 140.069 19.9175 139.573 19.0002C139.116 18.1764 138.45 17.487 137.643 17.0012C136.832 16.5136 135.901 16.2601 134.955 16.2688V16.2633ZM138.186 21.2738H131.031L131.071 21.0811C131.297 20.0107 131.771 19.2401 132.483 18.7949C133.226 18.3458 134.08 18.117 134.948 18.1352C135.468 18.1337 135.981 18.2537 136.446 18.4856C136.912 18.7175 137.316 19.0549 137.628 19.4709C137.945 19.8987 138.134 20.4071 138.174 20.9375L138.186 21.2738ZM131.438 20.9539H137.866C137.828 20.4865 137.658 20.0394 137.378 19.6636C137.098 19.2885 136.734 18.9846 136.314 18.7767C135.892 18.5662 135.427 18.4573 134.955 18.4587C134.149 18.4457 133.355 18.6619 132.667 19.082C132.067 19.4455 131.657 20.0779 131.438 20.9594V20.9539Z" fill="white"/>
<path d="M71.0731 42.4227C71.0606 43.1705 71.2488 43.9079 71.6183 44.5581C71.962 45.165 72.4549 45.6742 73.0504 46.0374C73.6216 46.3942 74.2816 46.5832 74.955 46.5826C75.6714 46.5988 76.3746 46.389 76.965 45.9829C77.4804 45.6313 77.9462 45.2119 78.3498 44.7362L79.6674 46.3518C79.3357 46.8057 78.9295 47.2002 78.4661 47.5186C77.9338 47.8925 77.3505 48.1881 76.7342 48.3963C76.0773 48.6204 75.3873 48.7323 74.6933 48.7271C73.634 48.7409 72.5926 48.4528 71.691 47.8966C70.7984 47.3429 70.0694 46.5612 69.5793 45.6322C69.0704 44.6366 68.8051 43.5344 68.8051 42.4163C68.8051 41.2983 69.0704 40.1961 69.5793 39.2005C70.0724 38.2769 70.8009 37.5001 71.691 36.9488C72.5926 36.3926 73.634 36.1045 74.6933 36.1183C75.7345 36.0989 76.7648 36.3328 77.6956 36.7998C78.5044 37.1909 79.1856 37.8034 79.6601 38.5663L78.3425 40.1819C77.9485 39.6221 77.4312 39.1601 76.8305 38.8316C76.2571 38.4773 75.5998 38.2816 74.9259 38.2646C74.2326 38.2566 73.5514 38.4457 72.9614 38.8098C72.3768 39.1707 71.8989 39.6807 71.5765 40.2873C71.231 40.9451 71.0578 41.6798 71.0731 42.4227Z" fill="white"/>
<path d="M74.6933 48.8867C73.6034 48.9001 72.5321 48.6039 71.6038 48.0325C70.6874 47.4636 69.9385 46.6615 69.4339 45.7081C68.9119 44.6892 68.6397 43.5608 68.6397 42.416C68.6397 41.2712 68.9119 40.1428 69.4339 39.1239C69.9426 38.1768 70.6908 37.3797 71.6038 36.8122C72.5319 36.2403 73.6033 35.9435 74.6933 35.9562C75.7646 35.9365 76.8246 36.1766 77.7828 36.6559C78.6175 37.0615 79.3205 37.6946 79.811 38.4823L79.8674 38.5805L78.3444 40.4505L78.2227 40.2688C77.8431 39.7298 77.3459 39.2842 76.7688 38.9657C76.2209 38.6285 75.5944 38.4406 74.9514 38.4205C74.2833 38.4117 73.6265 38.5933 73.0577 38.9439C72.4971 39.2909 72.0382 39.78 71.7274 40.3615C71.3949 40.9968 71.2274 41.7054 71.2404 42.4224C71.2276 43.1416 71.407 43.8511 71.7601 44.4778C72.0921 45.0601 72.566 45.549 73.1377 45.899C73.683 46.2386 74.3126 46.4187 74.955 46.4187C75.6387 46.4338 76.3098 46.2342 76.8742 45.8481C77.378 45.5047 77.8334 45.0951 78.2281 44.6304L78.3535 44.4778L79.8655 46.3424L79.7965 46.4405C79.4539 46.9089 79.0349 47.3163 78.557 47.6454C78.0121 48.0285 77.4147 48.3309 76.7833 48.5432C76.1108 48.7741 75.4043 48.8902 74.6933 48.8867ZM74.6933 36.2779C73.6674 36.2672 72.6593 36.5469 71.7856 37.0848C70.9196 37.6224 70.2102 38.3783 69.7283 39.2765C69.2322 40.2487 68.9735 41.3246 68.9735 42.416C68.9735 43.5074 69.2322 44.5833 69.7283 45.5555C70.2079 46.4587 70.9176 47.2192 71.7856 47.7599C72.6596 48.2971 73.6675 48.5768 74.6933 48.5668C75.3672 48.5687 76.0367 48.4581 76.6743 48.2397C77.2765 48.0373 77.8464 47.749 78.3662 47.3837C78.7797 47.0974 79.1474 46.75 79.4566 46.3533L78.3408 44.983C77.9553 45.4076 77.5217 45.7857 77.0486 46.1098C76.4317 46.535 75.6968 46.7555 74.9478 46.7404C74.2451 46.7411 73.5562 46.5446 72.9596 46.1734C72.3425 45.7958 71.831 45.2682 71.473 44.6395C71.0897 43.9643 70.8945 43.1987 70.9078 42.4224C70.8954 41.652 71.0766 40.8909 71.4348 40.2088C71.7717 39.5779 72.2695 39.0475 72.8778 38.6713C73.4935 38.2931 74.2035 38.0966 74.926 38.1043C75.6275 38.1224 76.312 38.3249 76.9105 38.6913C77.4672 39.0011 77.957 39.418 78.3517 39.918L79.4639 38.5532C79.0043 37.8619 78.3688 37.3055 77.6229 36.9412C76.714 36.4876 75.709 36.2601 74.6933 36.2779Z" fill="white"/>
<path d="M93.5211 42.4224C93.5446 43.5664 93.2616 44.6959 92.7014 45.6936C92.1739 46.6209 91.4085 47.3907 90.4843 47.9235C89.5319 48.4672 88.4513 48.7458 87.3548 48.7304C86.255 48.7445 85.1712 48.466 84.2144 47.9235C83.2848 47.394 82.5151 46.6237 81.9863 45.6936C81.4455 44.6881 81.1624 43.5642 81.1624 42.4224C81.1624 41.2807 81.4455 40.1567 81.9863 39.1512C82.5151 38.2211 83.2848 37.4508 84.2144 36.9213C85.1712 36.3788 86.255 36.1003 87.3548 36.1144C88.4513 36.099 89.5319 36.3776 90.4843 36.9213C91.4085 37.4541 92.1739 38.2239 92.7014 39.1512C93.2616 40.1489 93.5446 41.2784 93.5211 42.4224ZM91.0967 42.4224C91.1273 41.6739 90.9639 40.9302 90.6224 40.2634C90.3144 39.6639 89.8472 39.1609 89.2721 38.8095C88.6942 38.4602 88.0299 38.2802 87.3548 38.2897C86.6765 38.2791 86.0088 38.4585 85.4271 38.8076C84.8455 39.1567 84.3732 39.6616 84.0636 40.2652C83.7227 40.9322 83.5599 41.6759 83.591 42.4242C83.5615 43.1649 83.7243 43.9006 84.0636 44.5596C84.3766 45.1635 84.8477 45.671 85.4266 46.028C86.007 46.3818 86.6751 46.5656 87.3548 46.5587C88.0313 46.5672 88.6962 46.3832 89.2721 46.028C89.8464 45.6693 90.313 45.1619 90.6224 44.5596C90.9626 43.9002 91.1261 43.1638 91.0967 42.4224Z" fill="white"/>
<path d="M87.3549 48.8871C86.2301 48.899 85.1222 48.6131 84.1436 48.0584C83.1902 47.5139 82.4001 46.7238 81.8556 45.7704C81.3039 44.7408 81.0152 43.5908 81.0152 42.4228C81.0152 41.2547 81.3039 40.1048 81.8556 39.0752C82.3995 38.1214 83.1898 37.3311 84.1436 36.7872C85.1276 36.2424 86.2338 35.9565 87.3585 35.9565C88.4832 35.9565 89.5895 36.2424 90.5734 36.7872C91.5186 37.3349 92.3013 38.1239 92.8415 39.0734C93.3932 40.103 93.6819 41.2529 93.6819 42.421C93.6819 43.589 93.3932 44.739 92.8415 45.7686C92.2986 46.7195 91.5127 47.5092 90.5643 48.0566C89.5876 48.6145 88.4796 48.9012 87.3549 48.8871ZM87.3549 36.2783C86.2824 36.2689 85.2265 36.5436 84.2945 37.0743C83.3899 37.5903 82.6405 38.3397 82.1245 39.2442C81.6008 40.2251 81.3268 41.3199 81.3268 42.4319C81.3268 43.5438 81.6008 44.6386 82.1245 45.6195C82.6405 46.5241 83.3899 47.2735 84.2945 47.7895C85.2299 48.3057 86.281 48.5765 87.3494 48.5765C88.4179 48.5765 89.469 48.3057 90.4044 47.7895C91.3044 47.2697 92.0497 46.5194 92.5634 45.6159C93.0872 44.635 93.3611 43.5402 93.3611 42.4282C93.3611 41.3163 93.0872 40.2215 92.5634 39.2406C92.0487 38.3398 91.3035 37.5921 90.4044 37.0743C89.4768 36.5425 88.4241 36.2677 87.3549 36.2783ZM87.3549 46.7172C86.6455 46.7234 85.9486 46.5307 85.3431 46.1611C84.7404 45.7889 84.2494 45.2608 83.9219 44.6327C83.5986 43.936 83.4312 43.1772 83.4312 42.4092C83.4312 41.6411 83.5986 40.8823 83.9219 40.1856C84.246 39.5571 84.739 39.0314 85.3454 38.6677C85.9519 38.3039 86.6478 38.1165 87.3549 38.1265C88.059 38.1184 88.7514 38.3073 89.354 38.6718C89.9531 39.0388 90.4402 39.563 90.7624 40.1874C91.1147 40.8783 91.2842 41.6479 91.2549 42.4228C91.2824 43.19 91.1129 43.9515 90.7624 44.6345C90.4382 45.2603 89.9525 45.788 89.3558 46.1629C88.7544 46.5326 88.0608 46.7248 87.3549 46.7172ZM87.3549 38.4482C86.7054 38.4402 86.0665 38.6135 85.5101 38.9487C84.9537 39.2839 84.5019 39.7676 84.2054 40.3455C83.906 40.9955 83.751 41.7026 83.751 42.4182C83.751 43.1339 83.906 43.841 84.2054 44.4909C84.5056 45.0684 84.9565 45.5538 85.5103 45.8958C86.0657 46.2338 86.7047 46.4094 87.3549 46.4028C88.0019 46.4115 88.638 46.2356 89.1886 45.8958C89.7379 45.5518 90.1848 45.0666 90.4826 44.4909C90.8067 43.8551 90.9631 43.1469 90.9369 42.4337C90.9649 41.7127 90.8085 40.9965 90.4826 40.3528C90.186 39.7792 89.7386 39.2972 89.1886 38.9589C88.6368 38.6214 88.0017 38.4445 87.3549 38.4482Z" fill="white"/>
<path d="M102.275 36.1653C103.275 36.1653 104.076 36.3925 104.678 36.8469C105.29 37.3196 105.742 37.9702 105.97 38.7096C106.224 38.2749 106.544 37.8814 106.917 37.5429C107.347 37.141 107.837 36.8097 108.371 36.5615C108.927 36.2978 109.535 36.1624 110.15 36.1653C111.197 36.1653 112.013 36.3925 112.598 36.8469C113.189 37.3095 113.621 37.9447 113.834 38.6642C114.083 39.4891 114.205 40.3469 114.197 41.2085V48.4779H111.791V41.3593C111.791 40.4664 111.621 39.7431 111.282 39.1894C110.943 38.6357 110.304 38.3583 109.365 38.3571C108.959 38.3433 108.555 38.4109 108.176 38.5557C107.798 38.7005 107.451 38.9197 107.159 39.2003C106.879 39.463 106.657 39.7816 106.508 40.1353C106.359 40.4891 106.286 40.8702 106.294 41.2539V48.5052H103.891V41.3139C103.891 40.4513 103.709 39.7431 103.346 39.1894C102.982 38.6357 102.376 38.3583 101.528 38.3571C100.98 38.349 100.438 38.4843 99.9582 38.7496C99.5131 38.9941 99.1378 39.3482 98.8678 39.7782C98.6046 40.2044 98.4684 40.6968 98.4752 41.1976V48.4961H96.0618V36.3707H98.4643V38.3116C98.8779 37.7145 99.4084 37.2076 100.024 36.8214C100.692 36.3839 101.476 36.1555 102.275 36.1653Z" fill="white"/>
<path d="M114.352 48.6561H111.626V41.3595C111.626 40.5017 111.462 39.8002 111.14 39.2731C110.819 38.7461 110.232 38.5189 109.361 38.5189C108.977 38.5058 108.594 38.5694 108.234 38.7061C107.875 38.8428 107.546 39.0498 107.268 39.3149C107.003 39.5611 106.794 39.8602 106.653 40.1928C106.512 40.5253 106.443 40.8838 106.45 41.245V48.6561H103.724V41.314C103.724 40.4871 103.542 39.802 103.197 39.2786C102.851 38.7552 102.317 38.528 101.512 38.528C100.992 38.518 100.479 38.6432 100.022 38.8915C99.6023 39.1234 99.2484 39.4579 98.9933 39.8638C98.7485 40.2658 98.6225 40.7289 98.6298 41.1995V48.6507H95.9037V36.2109H98.6298V37.8301C99.0082 37.3863 99.4504 37.0011 99.9419 36.687C100.636 36.232 101.451 35.9941 102.281 36.0037C103.311 36.0037 104.153 36.2436 104.78 36.7161C105.328 37.1393 105.752 37.7024 106.006 38.3463C106.239 38.0104 106.507 37.7013 106.808 37.4249C107.25 37.0109 107.755 36.6698 108.304 36.4144C108.881 36.1429 109.512 36.0038 110.15 36.0073C111.228 36.0073 112.084 36.2472 112.694 36.7216C113.312 37.2062 113.763 37.8713 113.985 38.6243C114.237 39.4678 114.359 40.3447 114.348 41.225L114.352 48.6561ZM111.949 48.3417H114.03V41.2213C114.041 40.3713 113.924 39.5245 113.681 38.7097C113.477 38.0197 113.064 37.4098 112.5 36.9633C111.955 36.5344 111.155 36.3163 110.15 36.3163C109.559 36.3135 108.975 36.4426 108.44 36.6943C107.922 36.9352 107.445 37.2566 107.028 37.6466C106.671 37.9757 106.364 38.3561 106.119 38.7752L105.937 39.0914L105.823 38.7479C105.603 38.0409 105.171 37.4186 104.585 36.9651C104.016 36.5344 103.24 36.3163 102.281 36.3163C101.513 36.3079 100.759 36.5281 100.116 36.9487C99.5194 37.3269 99.0046 37.8214 98.6025 38.4026L98.3081 38.8424V36.5289H96.2218V48.3417H98.3026V41.1977C98.297 40.6669 98.4413 40.1454 98.7188 39.6929C99.0029 39.2415 99.3968 38.8694 99.8638 38.6116C100.368 38.3321 100.936 38.1893 101.512 38.1972C102.412 38.1972 103.071 38.5007 103.471 39.1059C103.871 39.7111 104.051 40.429 104.051 41.3195V48.3417H106.134V41.254C106.127 40.8508 106.205 40.4507 106.361 40.079C106.517 39.7073 106.749 39.3722 107.042 39.095C107.35 38.7999 107.713 38.5693 108.111 38.4166C108.509 38.264 108.933 38.1925 109.359 38.2063C110.354 38.2063 111.044 38.5116 111.413 39.115C111.782 39.7184 111.946 40.4508 111.946 41.3685L111.949 48.3417Z" fill="white"/>
<path d="M123.546 36.1653C124.545 36.1653 125.345 36.3925 125.946 36.8469C126.56 37.3189 127.012 37.9697 127.24 38.7096C127.495 38.2753 127.815 37.8819 128.187 37.5429C128.617 37.141 129.108 36.8097 129.641 36.5615C130.197 36.2995 130.804 36.1654 131.418 36.169C132.465 36.169 133.281 36.3962 133.866 36.8505C134.458 37.3126 134.89 37.948 135.102 38.6678C135.351 39.4927 135.474 40.3505 135.466 41.2121V48.4815H133.061V41.3593C133.061 40.4664 132.892 39.7431 132.552 39.1894C132.213 38.6357 131.574 38.3583 130.635 38.3571C130.23 38.3431 129.826 38.4106 129.447 38.5554C129.068 38.7002 128.722 38.9195 128.429 39.2003C128.149 39.4633 127.928 39.7819 127.779 40.1356C127.63 40.4893 127.557 40.8702 127.564 41.2539V48.5052H125.161V41.3139C125.161 40.4513 124.977 39.7431 124.607 39.1894C124.238 38.6357 123.632 38.3583 122.79 38.3571C122.241 38.3487 121.7 38.4841 121.219 38.7496C120.774 38.9941 120.399 39.3482 120.129 39.7782C119.867 40.2047 119.731 40.6969 119.737 41.1976V48.4961H117.332V36.3707H119.735V38.3116C120.148 37.7145 120.679 37.2076 121.294 36.8214C121.963 36.3839 122.747 36.1555 123.546 36.1653Z" fill="white"/>
<path d="M135.622 48.6561H132.896V41.3594C132.896 40.5016 132.734 39.8001 132.413 39.2731C132.091 38.746 131.504 38.5189 130.632 38.5189C130.247 38.5055 129.864 38.5691 129.504 38.7058C129.145 38.8425 128.816 39.0495 128.538 39.3149C128.273 39.5624 128.064 39.8631 127.923 40.1973C127.783 40.5315 127.715 40.8916 127.724 41.254V48.6652H124.998V41.3231C124.998 40.498 124.816 39.8128 124.471 39.2876C124.125 38.7624 123.58 38.528 122.782 38.528C122.263 38.5178 121.749 38.643 121.292 38.8914C120.873 39.1233 120.519 39.4578 120.264 39.8637C120.02 40.2661 119.894 40.729 119.9 41.1995V48.6506H117.174V36.2108H119.9V37.8301C120.278 37.3867 120.72 37.0016 121.21 36.687C121.906 36.2326 122.72 35.9948 123.551 36.0037C124.582 36.0037 125.423 36.2435 126.05 36.7161C126.6 37.1375 127.025 37.6994 127.282 38.3426C127.515 38.0071 127.784 37.6982 128.084 37.4212C128.525 37.0072 129.03 36.6661 129.579 36.4107C130.157 36.1392 130.788 36.0001 131.426 36.0037C132.503 36.0037 133.359 36.2435 133.97 36.7179C134.587 37.203 135.038 37.8679 135.26 38.6206C135.513 39.4641 135.635 40.341 135.624 41.2213L135.622 48.6561ZM133.221 48.3417H135.302V41.2213C135.313 40.3712 135.195 39.5243 134.951 38.7097C134.748 38.019 134.336 37.4086 133.77 36.9632C133.216 36.5343 132.425 36.3162 131.42 36.3162C130.829 36.3135 130.245 36.4426 129.71 36.6943C129.192 36.9352 128.716 37.2566 128.298 37.6465C127.937 37.9742 127.627 38.3547 127.38 38.7751L127.199 39.0913L127.084 38.7479C126.864 38.0409 126.432 37.4186 125.846 36.965C125.278 36.5343 124.502 36.3162 123.542 36.3162C122.774 36.3079 122.02 36.528 121.378 36.9487C120.781 37.3269 120.266 37.8213 119.864 38.4026L119.582 38.8424V36.5289H117.494V48.3417H119.582V41.1977C119.576 40.6669 119.721 40.1453 119.998 39.6929C120.281 39.241 120.674 38.8688 121.141 38.6116C121.645 38.3318 122.213 38.189 122.79 38.1972C123.689 38.1972 124.349 38.5007 124.749 39.1059C125.149 39.7111 125.33 40.4289 125.33 41.3194V48.3417H127.397V41.254C127.39 40.8508 127.468 40.4506 127.624 40.0789C127.78 39.7073 128.012 39.3722 128.305 39.095C128.613 38.7999 128.976 38.5692 129.374 38.4166C129.772 38.264 130.196 38.1925 130.622 38.2063C131.618 38.2063 132.309 38.5116 132.676 39.115C133.043 39.7183 133.209 40.4507 133.209 41.3685L133.221 48.3417Z" fill="white"/>
<path d="M149.065 46.9024H149.041C148.447 47.4459 147.758 47.8769 147.01 48.1746C146.046 48.5778 145.007 48.7652 143.963 48.7234C142.92 48.6817 141.898 48.4118 140.97 47.9329C140.031 47.424 139.251 46.6639 138.719 45.7375C138.17 44.7707 137.89 43.6742 137.91 42.5626C137.91 41.2092 138.195 40.051 138.764 39.0878C139.302 38.1553 140.084 37.3879 141.027 36.8688C141.967 36.3523 143.025 36.0857 144.098 36.0946C145.074 36.0834 146.033 36.3433 146.87 36.8452C147.702 37.3466 148.388 38.0595 148.856 38.9115C149.364 39.8539 149.619 40.9122 149.596 41.9828L149.572 43.0005H140.289C140.383 44.0096 140.868 44.9418 141.641 45.5975C142.403 46.2373 143.369 46.5571 144.538 46.5571C145.386 46.5571 146.071 46.399 146.593 46.0828C147.05 45.817 147.482 45.513 147.887 45.1741L149.065 46.9024ZM144.1 38.2881C143.263 38.2692 142.437 38.4899 141.721 38.9242C141.042 39.347 140.596 40.074 140.382 41.105H147.171V40.9433C147.133 40.4411 146.953 39.96 146.651 39.5566C146.357 39.1613 145.973 38.8407 145.532 38.6207C145.087 38.3996 144.597 38.2858 144.1 38.2881Z" fill="white"/>
<path d="M144.307 48.8867C143.118 48.91 141.942 48.6291 140.892 48.0707C139.929 47.5463 139.128 46.7666 138.579 45.8172C138.02 44.8241 137.736 43.6999 137.756 42.5604C137.756 41.1829 138.05 39.9871 138.633 39.0039C139.186 38.0481 139.989 37.2609 140.956 36.7267C141.921 36.1997 143.005 35.927 144.105 35.9344C145.109 35.9242 146.097 36.1915 146.959 36.7067C147.815 37.224 148.52 37.9573 149.003 38.833C149.519 39.8005 149.776 40.8847 149.75 41.9807L149.723 43.1584H140.482C140.607 44.0602 141.06 44.8843 141.754 45.4737C142.481 46.0843 143.424 46.3933 144.549 46.3933C145.363 46.3933 146.026 46.2424 146.522 45.9444C146.971 45.6811 147.396 45.3807 147.795 45.0466L147.931 44.9303L149.385 47.062H149.123C147.788 48.216 146.088 48.8598 144.323 48.8794L144.307 48.8867ZM144.1 36.2542C143.054 36.2472 142.023 36.5067 141.105 37.0084C140.188 37.515 139.427 38.2613 138.902 39.1674C138.357 40.0997 138.072 41.241 138.072 42.5604C138.055 43.6417 138.326 44.708 138.857 45.65C139.374 46.5551 140.133 47.2983 141.049 47.7963C142.295 48.426 143.699 48.6736 145.085 48.5081C146.472 48.3425 147.778 47.7712 148.841 46.8658L147.849 45.4119C147.476 45.7094 147.082 45.9808 146.671 46.2242C146.126 46.5532 145.399 46.7204 144.532 46.7204C143.329 46.7204 142.319 46.386 141.532 45.7245C140.73 45.0411 140.226 44.0726 140.125 43.0239L140.102 42.8421H149.412L149.43 41.9825C149.452 40.9408 149.205 39.9111 148.712 38.993C148.255 38.1693 147.589 37.4801 146.782 36.9939C145.974 36.5046 145.045 36.2486 144.1 36.2542ZM147.331 41.2665H140.183L140.223 41.072C140.449 40.0016 140.923 39.2329 141.636 38.7876C142.378 38.3386 143.233 38.1098 144.1 38.1279C144.62 38.1255 145.133 38.2449 145.599 38.4765C146.064 38.7082 146.469 39.0456 146.78 39.4619C147.097 39.8901 147.286 40.3992 147.326 40.9303L147.331 41.2665ZM140.583 40.9448H147.011C146.973 40.4773 146.803 40.0301 146.522 39.6545C146.243 39.2788 145.879 38.9743 145.459 38.7658C145.037 38.5551 144.572 38.4462 144.1 38.4478C143.293 38.4299 142.498 38.6417 141.806 39.0584C141.208 39.4364 140.801 40.0634 140.583 40.9448Z" fill="white"/>
<path d="M158.973 38.9351C158.792 38.8496 158.603 38.7838 158.408 38.7388C158.177 38.6841 157.94 38.6573 157.703 38.6588C157.194 38.6628 156.695 38.7933 156.249 39.0387C155.768 39.2972 155.359 39.6721 155.06 40.1291C154.737 40.6249 154.571 41.2072 154.584 41.7992V48.4962H152.184V36.3708H154.584V38.6588C154.921 37.924 155.453 37.2955 156.122 36.8415C156.748 36.3829 157.503 36.1325 158.279 36.1254C158.73 36.1026 159.18 36.1815 159.597 36.3563L158.973 38.9351Z" fill="white"/>
<path d="M154.744 48.6563H152.018V36.2111H154.744V38.0284C155.081 37.506 155.518 37.0551 156.029 36.7017C156.683 36.2254 157.47 35.965 158.279 35.9566C158.755 35.9325 159.23 36.0177 159.667 36.2056L159.784 36.2619L159.082 39.1697L158.901 39.0788C158.73 38.9991 158.552 38.9381 158.368 38.8971C157.674 38.7395 156.946 38.841 156.322 39.1824C155.865 39.4283 155.476 39.7836 155.189 40.2165C154.884 40.6876 154.728 41.24 154.742 41.8012L154.744 48.6563ZM152.344 48.3419H154.424V41.7994C154.41 41.1741 154.585 40.5589 154.926 40.0348C155.241 39.558 155.669 39.167 156.173 38.8971C156.58 38.672 157.033 38.5391 157.497 38.5077C157.962 38.4763 158.428 38.5472 158.862 38.7154L159.408 36.4455C159.044 36.3233 158.661 36.2679 158.277 36.2819C157.534 36.2906 156.811 36.5307 156.211 36.9689C155.567 37.4099 155.055 38.0181 154.73 38.7281L154.423 39.3969V36.5291H152.344V48.3419Z" fill="white"/>
<path d="M162.506 42.4227C162.494 43.1704 162.682 43.9078 163.051 44.5581C163.396 45.1646 163.888 45.6737 164.483 46.0374C165.055 46.3942 165.715 46.5831 166.388 46.5826C167.104 46.5975 167.807 46.3864 168.396 45.9792C168.912 45.6281 169.378 45.2087 169.781 44.7325L171.099 46.3481C170.767 46.8025 170.361 47.1971 169.897 47.5149C169.365 47.8892 168.782 48.1848 168.165 48.3927C167.512 48.617 166.825 48.73 166.134 48.7271C165.074 48.7411 164.032 48.453 163.129 47.8965C162.237 47.3423 161.508 46.5608 161.018 45.6321C160.509 44.6365 160.243 43.5344 160.243 42.4163C160.243 41.2982 160.509 40.1961 161.018 39.2005C161.511 38.2773 162.24 37.5006 163.129 36.9488C164.032 36.3923 165.074 36.1042 166.134 36.1183C167.175 36.0993 168.205 36.3332 169.136 36.7998C169.944 37.1908 170.625 37.8034 171.099 38.5662L169.781 40.1819C169.387 39.6216 168.87 39.1596 168.269 38.8316C167.695 38.4772 167.038 38.2815 166.364 38.2645C165.672 38.2566 164.991 38.4457 164.402 38.8098C163.816 39.1701 163.337 39.6801 163.015 40.2873C162.667 40.9446 162.492 41.6793 162.506 42.4227Z" fill="white"/>
<path d="M166.134 48.887C165.044 48.9002 163.972 48.604 163.044 48.0328C162.128 47.4629 161.38 46.661 160.874 45.7084C160.353 44.6891 160.082 43.5609 160.082 42.4163C160.082 41.2716 160.353 40.1434 160.874 39.1241C161.382 38.1767 162.131 37.3795 163.044 36.8124C163.972 36.2406 165.044 35.9438 166.134 35.9565C167.201 35.939 168.256 36.179 169.21 36.6561C170.044 37.0628 170.746 37.6958 171.237 38.4826L171.293 38.5807L169.77 40.4508L169.648 40.269C169.269 39.7301 168.772 39.2845 168.194 38.966C167.647 38.6288 167.02 38.4408 166.377 38.4208C165.714 38.4131 165.063 38.5927 164.498 38.9387C163.938 39.2863 163.48 39.7752 163.169 40.3563C162.836 40.9911 162.667 41.7 162.681 42.4172C162.668 43.1363 162.847 43.8458 163.2 44.4726C163.532 45.0549 164.006 45.5438 164.578 45.8938C165.123 46.2334 165.753 46.4135 166.395 46.4135C167.078 46.4282 167.749 46.2286 168.313 45.8429C168.816 45.499 169.271 45.0895 169.667 44.6253L169.792 44.4726L171.299 46.3427L171.229 46.4408C170.887 46.9092 170.468 47.3165 169.99 47.6457C169.446 48.0288 168.849 48.3312 168.218 48.5435C167.547 48.7736 166.843 48.8897 166.134 48.887ZM166.134 36.2781C165.104 36.2655 164.092 36.5453 163.215 37.085C162.349 37.6227 161.639 38.3785 161.158 39.2768C160.661 40.2489 160.403 41.3248 160.403 42.4163C160.403 43.5077 160.661 44.5836 161.158 45.5557C161.638 46.4586 162.347 47.219 163.215 47.7602C164.092 48.2994 165.104 48.5791 166.134 48.5671C166.807 48.5689 167.476 48.4584 168.113 48.24C168.715 48.0375 169.285 47.7492 169.805 47.384C170.219 47.0982 170.586 46.7507 170.895 46.3536L169.779 44.9833C169.394 45.4074 168.961 45.7855 168.489 46.11C167.871 46.5355 167.136 46.7561 166.386 46.7407C165.683 46.7413 164.995 46.5449 164.398 46.1736C163.781 45.7956 163.27 45.268 162.911 44.6398C162.528 43.9645 162.333 43.1989 162.346 42.4226C162.334 41.6523 162.515 40.8911 162.873 40.2091C163.21 39.5782 163.708 39.0477 164.316 38.6716C164.932 38.2934 165.642 38.0968 166.364 38.1046C167.066 38.1227 167.75 38.3251 168.349 38.6916C168.906 39.0008 169.396 39.4178 169.79 39.9183L170.902 38.5535C170.443 37.8622 169.807 37.3058 169.061 36.9415C168.153 36.4881 167.149 36.2606 166.134 36.2781Z" fill="white"/>
<path d="M183.755 46.9024H183.735C183.14 47.4459 182.452 47.877 181.703 48.1746C180.74 48.5778 179.7 48.7652 178.657 48.7234C177.613 48.6817 176.592 48.4118 175.664 47.9329C174.724 47.4241 173.943 46.664 173.41 45.7375C172.863 44.7702 172.584 43.6739 172.603 42.5626C172.603 41.2093 172.888 40.051 173.458 39.0878C173.994 38.1555 174.777 37.3885 175.72 36.8706C176.661 36.3539 177.72 36.0873 178.793 36.0964C179.765 36.0872 180.72 36.3463 181.554 36.8452C182.391 37.3454 183.081 38.0583 183.553 38.9115C184.056 39.8548 184.306 40.9123 184.28 41.981L184.256 42.9987H174.979C175.073 44.0073 175.558 44.9392 176.329 45.5957C177.092 46.2354 178.061 46.5553 179.237 46.5553C180.085 46.5553 180.77 46.3972 181.292 46.081C181.748 45.8147 182.181 45.5108 182.586 45.1723L183.755 46.9024ZM178.79 38.2882C177.952 38.2687 177.127 38.4894 176.411 38.9242C175.732 39.3471 175.286 40.074 175.071 41.1051H181.861V40.9433C181.822 40.4413 181.642 39.9605 181.341 39.5567C181.046 39.1609 180.662 38.8402 180.22 38.6207C179.776 38.3997 179.286 38.2858 178.79 38.2882Z" fill="white"/>
<path d="M178.997 48.8867C177.808 48.9102 176.632 48.6293 175.582 48.0707C174.618 47.5468 173.817 46.767 173.269 45.8171C172.708 44.8246 172.421 43.7004 172.44 42.5604C172.44 41.1829 172.734 39.9871 173.316 39.0039C173.87 38.048 174.673 37.2608 175.64 36.7267C176.606 36.1997 177.69 35.927 178.79 35.9344C179.794 35.9242 180.781 36.1914 181.643 36.7067C182.498 37.2241 183.203 37.9574 183.686 38.833C184.207 39.7995 184.469 40.8846 184.447 41.9825L184.42 43.1602H175.164C175.289 44.0622 175.742 44.8866 176.436 45.4755C177.163 46.0861 178.104 46.3951 179.231 46.3951C180.045 46.3951 180.709 46.2442 181.205 45.9462C181.653 45.6824 182.078 45.3821 182.477 45.0484L182.613 44.9321L184.067 47.0639H183.804C182.47 48.2185 180.77 48.8625 179.006 48.8812L178.997 48.8867ZM178.79 36.2542C177.743 36.2469 176.713 36.5065 175.795 37.0084C174.877 37.5139 174.116 38.2605 173.592 39.1674C173.047 40.0997 172.76 41.241 172.76 42.5604C172.743 43.6419 173.015 44.7082 173.547 45.6499C174.064 46.555 174.823 47.2982 175.738 47.7962C176.984 48.4294 178.389 48.6796 179.776 48.5153C181.164 48.351 182.472 47.7795 183.535 46.873L182.542 45.4191C182.17 45.7167 181.777 45.9881 181.367 46.2315C180.821 46.5604 180.094 46.7276 179.228 46.7276C178.023 46.7276 177.014 46.3932 176.225 45.7317C175.424 45.0479 174.92 44.0796 174.819 43.0311L174.797 42.8494H184.098L184.118 41.9898C184.14 40.9481 183.893 39.9183 183.4 39.0002C182.942 38.177 182.277 37.4878 181.47 37.0012C180.663 36.5099 179.735 36.2514 178.79 36.2542ZM182.021 41.2665H174.873L174.913 41.072C175.137 40.0016 175.613 39.2329 176.325 38.7876C177.067 38.3383 177.922 38.1095 178.79 38.1279C179.311 38.1263 179.826 38.2464 180.293 38.4787C180.756 38.7099 181.159 39.0466 181.468 39.4619C181.786 39.8897 181.975 40.399 182.014 40.9303L182.021 41.2665ZM175.271 40.9448H181.699C181.662 40.4773 181.493 40.0299 181.212 39.6545C180.931 39.2782 180.565 38.973 180.144 38.7634C179.724 38.5539 179.26 38.4458 178.79 38.4478C177.983 38.4297 177.187 38.6415 176.496 39.0584C175.902 39.4364 175.491 40.0634 175.271 40.9448Z" fill="white"/>
</svg>
