<svg width="25" height="20" viewBox="0 0 25 20" fill="none" xmlns="http://www.w3.org/2000/svg">
<path d="M22.0156 5.125C22.0469 5.25 22.0625 5.45312 22.0625 5.73438C22.0625 7.39062 21.75 9.04688 21.125 10.7031C20.5 12.3281 19.6094 13.8281 18.4531 15.2031C17.3281 16.5469 15.8594 17.6406 14.0469 18.4844C12.2344 19.3281 10.2344 19.75 8.04688 19.75C5.29688 19.75 2.78125 19.0156 0.5 17.5469C0.84375 17.5781 1.23438 17.5938 1.67188 17.5938C3.95312 17.5938 6 16.8906 7.8125 15.4844C6.71875 15.4844 5.75 15.1719 4.90625 14.5469C4.09375 13.8906 3.53125 13.0781 3.21875 12.1094C3.53125 12.1406 3.82812 12.1562 4.10938 12.1562C4.54688 12.1562 4.98438 12.1094 5.42188 12.0156C4.67188 11.8594 4 11.5469 3.40625 11.0781C2.8125 10.6094 2.34375 10.0469 2 9.39062C1.65625 8.70312 1.48438 7.96875 1.48438 7.1875V7.09375C2.17188 7.5 2.90625 7.71875 3.6875 7.75C2.21875 6.75 1.48438 5.375 1.48438 3.625C1.48438 2.75 1.71875 1.92188 2.1875 1.14062C3.40625 2.67188 4.89062 3.89063 6.64062 4.79688C8.42188 5.70312 10.3125 6.20312 12.3125 6.29688C12.25 5.92188 12.2188 5.54688 12.2188 5.17188C12.2188 3.82812 12.6875 2.67188 13.625 1.70312C14.5938 0.734375 15.75 0.25 17.0938 0.25C18.5312 0.25 19.7344 0.765625 20.7031 1.79688C21.8281 1.57812 22.875 1.1875 23.8438 0.625C23.4688 1.78125 22.75 2.6875 21.6875 3.34375C22.625 3.21875 23.5625 2.95313 24.5 2.54688C23.8125 3.54687 22.9844 4.40625 22.0156 5.125Z" fill="#A8B1CA"/>
</svg>
