<svg width="185" height="64" viewBox="0 0 185 64" fill="none" xmlns="http://www.w3.org/2000/svg">
	<g clip-path="url(#clip0)">
		<path d="M25.9682 24.2181C29.6161 24.2133 33.1221 25.6306 35.7419 28.169L44.3126 19.5965V0H32.567V12.7215C28.737 11.6905 24.721 11.5548 20.8301 12.3248C16.9392 13.0948 13.2777 14.7499 10.1291 17.162C6.9804 19.5741 4.42909 22.6785 2.67264 26.2347C0.916184 29.791 0.00170525 33.7038 0 37.6702C0 37.7628 0 37.8519 0 37.9446H11.8964C11.9884 34.2733 13.5112 30.7832 16.1401 28.2189C18.7689 25.6545 22.2957 24.2188 25.9682 24.2181Z" fill="#3AACE2" />
		<path d="M51.6856 37.8792H39.8001C39.7331 40.612 38.8717 43.2661 37.3211 45.5174C35.7705 47.7687 33.5978 49.5197 31.0684 50.5564C28.539 51.5932 25.7624 51.8709 23.0778 51.3556C20.3932 50.8403 17.9167 49.5543 15.951 47.6547L7.38031 56.2253C10.97 59.8971 15.5723 62.416 20.5999 63.4605C25.6275 64.5051 30.8523 64.0278 35.6074 62.0897C40.3626 60.1516 44.4324 56.8406 47.2974 52.5792C50.1624 48.3178 51.6927 43.2994 51.6929 38.1645C51.6929 38.0627 51.6874 37.9718 51.6856 37.8792Z" fill="#3AACE2" />
		<path d="M80.9123 11.4202V28.5033H78.5334V26.7932C78.1038 27.3362 77.5699 27.7879 76.9632 28.1217C76.2463 28.5375 75.4293 28.7493 74.6006 28.7341C73.5585 28.7486 72.5335 28.4683 71.6438 27.9254C70.7607 27.3805 70.0421 26.606 69.5647 25.6846C69.045 24.6789 68.7833 23.5598 68.8033 22.4279C68.7804 21.291 69.0421 20.1665 69.5647 19.1566C70.0409 18.2453 70.7501 17.4765 71.6202 16.9286C72.4926 16.3874 73.5014 16.1068 74.5279 16.1198C75.2825 16.1153 76.0294 16.2716 76.7188 16.5784C77.4083 16.8852 78.0244 17.3354 78.5261 17.899V11.4202H80.9123ZM74.9314 26.6859C75.62 26.701 76.2972 26.5078 76.8742 26.1317C77.4372 25.7518 77.8849 25.2243 78.1681 24.6069C78.4735 23.9204 78.6314 23.1774 78.6314 22.4261C78.6314 21.6747 78.4735 20.9317 78.1681 20.2452C77.8816 19.6334 77.4344 19.1108 76.8742 18.7332C76.2982 18.3577 75.6224 18.1646 74.935 18.1789C74.2547 18.1664 73.5864 18.3596 73.0177 18.7332C72.4557 19.1118 72.0051 19.6339 71.7129 20.2452C71.3992 20.9295 71.2369 21.6734 71.2369 22.4261C71.2369 23.1788 71.3992 23.9226 71.7129 24.6069C72.0018 25.2239 72.4528 25.7509 73.0177 26.1317C73.5854 26.5046 74.2523 26.6977 74.9314 26.6859Z" fill="#132337" />
		<path d="M74.6079 28.8959C73.5364 28.9093 72.4827 28.6208 71.5674 28.0636C70.6582 27.5065 69.917 26.7132 69.423 25.7683C68.8914 24.7388 68.623 23.5937 68.6415 22.4352C68.6202 21.2736 68.8888 20.1249 69.423 19.0931C69.9129 18.1571 70.6414 17.3672 71.5347 16.8032C72.4338 16.247 73.4726 15.9583 74.5297 15.9709C75.3672 15.9584 76.1957 16.1453 76.9468 16.5161C77.4669 16.7702 77.9455 17.1017 78.3662 17.4993V11.2676H81.0722V28.6797H78.3734V27.2494C77.9811 27.6524 77.5339 27.9981 77.0449 28.2762C76.3035 28.6991 75.4613 28.9133 74.6079 28.8959ZM74.537 16.2871C73.5391 16.2785 72.5594 16.5546 71.7128 17.0831C70.867 17.617 70.1773 18.3649 69.7137 19.2512C69.2052 20.2369 68.9497 21.3336 68.9704 22.4425C68.9521 23.5483 69.2074 24.6415 69.7137 25.6247C70.179 26.5202 70.8771 27.2736 71.7346 27.8055C72.6002 28.3304 73.5957 28.6018 74.6079 28.5888C75.4037 28.596 76.1866 28.3881 76.8741 27.9872C77.4611 27.6629 77.9785 27.2263 78.3971 26.7024L78.686 26.3135V28.3507H80.7451V11.5802H78.6915V18.3553L78.408 18.0191C77.9218 17.4735 77.3249 17.0379 76.6571 16.7411C75.9893 16.4443 75.2659 16.2933 74.5352 16.298L74.537 16.2871ZM74.9314 26.8405C74.2218 26.851 73.5255 26.6484 72.9323 26.2589C72.3445 25.8617 71.8744 25.3137 71.5711 24.6724C71.249 23.9667 71.0823 23.2 71.0823 22.4243C71.0823 21.6486 71.249 20.8819 71.5711 20.1763C71.8772 19.5402 72.347 18.997 72.9323 18.6024C73.5256 18.2132 74.2219 18.0106 74.9314 18.0209C75.6504 18.0072 76.357 18.2098 76.9595 18.6024C77.5438 18.9954 78.01 19.5401 78.308 20.1781C78.6231 20.885 78.786 21.6503 78.786 22.4243C78.786 23.1983 78.6231 23.9636 78.308 24.6706C78.0129 25.3138 77.5464 25.8634 76.9595 26.2589C76.3576 26.6535 75.651 26.8581 74.9314 26.846V26.8405ZM74.9314 18.3425C74.2828 18.3304 73.6457 18.5141 73.1031 18.8696C72.5637 19.2335 72.1319 19.7356 71.8528 20.3235C71.5523 20.9847 71.3968 21.7026 71.3968 22.4289C71.3968 23.1552 71.5523 23.8731 71.8528 24.5343C72.1314 25.1224 72.5633 25.6246 73.1031 25.9882C73.6455 26.3441 74.2828 26.5278 74.9314 26.5152C75.587 26.5296 76.2318 26.3459 76.7814 25.9882C77.319 25.6257 77.7471 25.1228 78.019 24.5343C78.3138 23.8709 78.4661 23.153 78.4661 22.427C78.4661 21.7011 78.3138 20.9832 78.019 20.3198C77.7464 19.7317 77.3185 19.229 76.7814 18.8659C76.2297 18.5146 75.5852 18.3367 74.9314 18.3553V18.3425Z" fill="#132337" />
		<path d="M94.608 26.9169H94.5843C93.9888 27.4602 93.2998 27.8912 92.5507 28.1891C91.5867 28.5931 90.5456 28.7805 89.5012 28.7381C88.4567 28.6958 87.4343 28.4246 86.5062 27.9437C85.5672 27.4355 84.7881 26.676 84.2563 25.7502C83.7077 24.7832 83.4284 23.6868 83.4476 22.5752C83.4476 21.2195 83.7323 20.0606 84.3017 19.0986C84.8397 18.1671 85.6221 17.4004 86.5643 16.8815C87.5055 16.366 88.5627 16.0995 89.6357 16.1073C90.6112 16.0961 91.5706 16.356 92.4071 16.8578C93.2401 17.36 93.9254 18.0735 94.3935 18.926C94.9027 19.8657 95.1594 20.9215 95.1386 21.9901L95.115 23.006H85.8319C85.9262 24.0151 86.4107 24.9475 87.1822 25.6048C87.9431 26.2445 88.9093 26.5637 90.0809 26.5625C90.929 26.5625 91.6142 26.405 92.1364 26.09C92.5916 25.8236 93.0238 25.5197 93.4285 25.1813L94.608 26.9169ZM89.6411 18.3026C88.8045 18.2831 87.9797 18.5032 87.264 18.9369C86.5855 19.3597 86.1385 20.0867 85.9228 21.1177H92.7125V20.956C92.6751 20.4536 92.4948 19.9725 92.1927 19.5693C91.897 19.1738 91.5129 18.8529 91.0712 18.632C90.6295 18.4111 90.1423 18.2965 89.6484 18.2972L89.6411 18.3026Z" fill="#132337" />
		<path d="M89.85 28.896C88.6608 28.9193 87.4854 28.6385 86.4352 28.08C85.4704 27.5566 84.6696 26.7759 84.1217 25.8247C83.5602 24.833 83.2735 23.7094 83.2912 22.5698C83.2912 21.1923 83.5874 19.9946 84.169 19.0114C84.7223 18.0557 85.526 17.269 86.4934 16.7361C87.4579 16.2079 88.5413 15.9345 89.641 15.9419C90.6487 15.9317 91.6395 16.2009 92.5034 16.7198C93.3594 17.2366 94.064 17.97 94.5461 18.8461C95.0642 19.8115 95.3234 20.8947 95.2985 21.9901L95.2712 23.1659H86.0172C86.1414 24.0681 86.5945 24.8926 87.2894 25.4812C88.0163 26.0919 88.9577 26.4026 90.0845 26.4026C90.8968 26.4026 91.562 26.2518 92.0563 25.9519C92.5049 25.6897 92.9304 25.39 93.3284 25.056L93.4647 24.9378L94.9186 27.0696H94.6478C93.3141 28.2242 91.614 28.8682 89.85 28.8869V28.896ZM89.641 16.2636C88.5953 16.2557 87.5649 16.5153 86.6478 17.0178C85.7311 17.5231 84.9695 18.269 84.4452 19.175C83.9 20.1091 83.6128 21.2504 83.6128 22.5698C83.5966 23.6512 83.8682 24.7175 84.3998 25.6593C84.9166 26.5576 85.6713 27.2958 86.5806 27.7929C87.4873 28.2597 88.4851 28.5227 89.504 28.5635C90.523 28.6043 91.5386 28.422 92.4797 28.0292C93.1724 27.7502 93.8142 27.3584 94.3789 26.8697L93.3866 25.4158C93.0139 25.7143 92.6204 25.9858 92.209 26.2282C91.6637 26.5589 90.9368 26.7243 90.0717 26.7243C88.8686 26.7243 87.8582 26.3899 87.0695 25.7284C86.2675 25.0451 85.763 24.0766 85.6628 23.0278L85.6392 22.8461H94.9495L94.9695 21.9865C94.9893 20.9439 94.7388 19.914 94.2426 18.9969C93.7861 18.1731 93.1211 17.4838 92.3144 16.9978C91.507 16.5142 90.5821 16.2621 89.641 16.2691V16.2636ZM92.8668 21.2795H85.7264L85.7664 21.0869C85.99 20.0164 86.4643 19.2477 87.1785 18.8006C87.92 18.3514 88.7742 18.1225 89.641 18.1409C90.161 18.1394 90.6741 18.2594 91.1395 18.4913C91.6049 18.7233 92.0097 19.0607 92.3216 19.4767C92.6388 19.9039 92.8279 20.4126 92.8668 20.9433V21.2795ZM86.1172 20.9596H92.5452C92.5076 20.4923 92.3387 20.045 92.0581 19.6693C91.7778 19.294 91.413 18.9902 90.9931 18.7825C90.5712 18.5715 90.1055 18.4625 89.6338 18.4644C88.8286 18.4502 88.0359 18.6644 87.3475 19.0823C86.7551 19.4458 86.3443 20.0782 86.1244 20.9596H86.1172Z" fill="#132337" />
		<path d="M98.9041 16.3853L102.437 25.045L106.108 16.3853H108.558L103.177 28.5107H101.467L96.3398 16.3853H98.9041Z" fill="#132337" />
		<path d="M103.28 28.6706H101.361L96.0909 16.2253H98.9986L102.428 24.627L105.99 16.2253H108.805L103.28 28.6706ZM101.574 28.3507H103.071L108.314 16.5379H106.215L102.433 25.4557L98.7951 16.5379H96.5816L101.574 28.3507Z" fill="#132337" />
		<path d="M112.322 13.752C111.782 13.752 111.382 13.6139 111.12 13.3376C110.851 13.0402 110.71 12.6483 110.728 12.2472C110.727 11.8644 110.867 11.4945 111.12 11.2077C111.382 10.9012 111.782 10.7473 112.322 10.7461C112.867 10.7461 113.261 10.8842 113.523 11.1623C113.793 11.4594 113.934 11.8516 113.915 12.2527C113.917 12.6356 113.777 13.0056 113.523 13.2922C113.261 13.5993 112.858 13.752 112.322 13.752ZM113.547 28.5107H111.168V16.3853H113.547V28.5107Z" fill="#132337" />
		<path d="M113.707 28.6706H111.006V16.2254H113.707V28.6706ZM111.328 28.3508H113.385V16.5379H111.328V28.3508ZM112.322 13.9155C111.738 13.9155 111.295 13.7574 111.004 13.4484C110.707 13.1226 110.551 12.693 110.568 12.2526C110.567 11.8317 110.72 11.4251 110.999 11.1095C111.291 10.766 111.735 10.5916 112.322 10.5916C112.909 10.5916 113.347 10.7478 113.639 11.0568C113.936 11.3828 114.092 11.8122 114.075 12.2526C114.076 12.6734 113.923 13.0797 113.645 13.3957C113.352 13.7374 112.907 13.9137 112.322 13.9137V13.9155ZM112.322 10.9114C111.827 10.9114 111.475 11.0441 111.242 11.3167C111.01 11.573 110.88 11.9064 110.879 12.2526C110.87 12.4302 110.896 12.6079 110.956 12.7753C111.016 12.9428 111.108 13.0968 111.228 13.2285C111.457 13.4702 111.822 13.592 112.318 13.592C112.814 13.592 113.165 13.4593 113.398 13.1867C113.626 12.9288 113.752 12.5956 113.75 12.2508C113.76 12.0721 113.735 11.8932 113.675 11.7244C113.615 11.5557 113.523 11.4004 113.403 11.2676C113.176 11.0332 112.812 10.9041 112.322 10.9041V10.9114Z" fill="#132337" />
		<path d="M118.673 22.4354C118.66 23.1837 118.849 23.9218 119.219 24.5726C119.563 25.1782 120.056 25.6866 120.651 26.0501C121.222 26.4076 121.883 26.5965 122.557 26.5953C123.273 26.6112 123.977 26.4014 124.567 25.9955C125.082 25.6428 125.548 25.2229 125.952 24.747L127.268 26.3645C126.936 26.8188 126.53 27.2134 126.066 27.5312C125.535 27.9056 124.951 28.2007 124.334 28.4072C123.682 28.6309 122.997 28.7439 122.308 28.7416C121.249 28.755 120.207 28.4663 119.306 27.9092C118.413 27.3558 117.684 26.5749 117.192 25.6466C116.683 24.651 116.418 23.5489 116.418 22.4308C116.418 21.3127 116.683 20.2106 117.192 19.215C117.685 18.2909 118.415 17.514 119.306 16.9633C120.207 16.4062 121.249 16.1175 122.308 16.1309C123.349 16.112 124.379 16.3459 125.31 16.8125C126.119 17.2036 126.799 17.8162 127.273 18.5789L125.957 20.1964C125.563 19.6364 125.046 19.174 124.445 18.8443C123.871 18.4912 123.213 18.2962 122.539 18.2791C121.846 18.2713 121.166 18.4604 120.576 18.8243C119.991 19.1856 119.513 19.6954 119.189 20.3018C118.84 20.9581 118.663 21.692 118.673 22.4354Z" fill="#132337" />
		<path d="M122.308 28.896C121.218 28.9092 120.146 28.6124 119.219 28.04C118.299 27.475 117.546 26.6752 117.038 25.7229C116.516 24.7037 116.243 23.575 116.243 22.4299C116.243 21.2847 116.516 20.156 117.038 19.1368C117.549 18.1884 118.301 17.3916 119.219 16.8269C120.146 16.2546 121.218 15.9577 122.308 15.971C123.375 15.9524 124.431 16.1925 125.385 16.6707C126.218 17.0738 126.92 17.7037 127.411 18.488L127.469 18.5843L125.943 20.4635L125.823 20.2817C125.443 19.7435 124.946 19.2985 124.369 18.9805C123.821 18.6424 123.195 18.4544 122.552 18.4353C121.889 18.4276 121.238 18.6079 120.674 18.9551C120.113 19.3016 119.654 19.7907 119.344 20.3726C119.01 21.0068 118.842 21.7151 118.855 22.4317C118.843 23.1516 119.023 23.8617 119.377 24.4889C119.708 25.0708 120.182 25.5596 120.752 25.9101C121.298 26.249 121.927 26.429 122.57 26.4298C123.253 26.4447 123.924 26.2445 124.487 25.8574C124.99 25.5135 125.446 25.104 125.841 24.6398L125.965 24.4889L127.466 26.3517L127.395 26.4517C127.053 26.9204 126.634 27.3273 126.155 27.6547C125.611 28.0385 125.014 28.3415 124.383 28.5543C123.715 28.7821 123.014 28.8976 122.308 28.896ZM122.308 16.2872C121.278 16.2746 120.266 16.5544 119.389 17.0941C118.524 17.6316 117.815 18.3875 117.334 19.2858C116.838 20.258 116.579 21.3339 116.579 22.4253C116.579 23.5167 116.838 24.5926 117.334 25.5648C117.812 26.4677 118.522 27.2277 119.389 27.7674C120.266 28.3091 121.278 28.5908 122.308 28.5798C122.981 28.5823 123.65 28.4724 124.287 28.2545C124.889 28.0513 125.459 27.7631 125.979 27.3985C126.392 27.112 126.76 26.7646 127.07 26.3681L125.943 24.996C125.558 25.4206 125.125 25.7993 124.652 26.1245C124.035 26.5492 123.3 26.7691 122.552 26.7533C121.845 26.7552 121.153 26.5595 120.552 26.1881C119.935 25.8099 119.424 25.2816 119.066 24.6525C118.684 23.9769 118.488 23.2115 118.501 22.4353C118.49 21.6646 118.674 20.9038 119.037 20.2236C119.374 19.5931 119.871 19.0622 120.478 18.6843C121.094 18.3066 121.804 18.1107 122.526 18.1191C123.228 18.1361 123.914 18.3386 124.512 18.7061C125.069 19.0152 125.558 19.4315 125.952 19.931L127.064 18.5662C126.605 17.8746 125.97 17.3185 125.223 16.956C124.319 16.5034 123.319 16.2758 122.308 16.2926V16.2872Z" fill="#132337" />
		<path d="M139.92 26.9169H139.896C139.301 27.4598 138.613 27.8908 137.865 28.1891C136.901 28.5925 135.861 28.7798 134.818 28.7378C133.775 28.6957 132.753 28.4253 131.826 27.9455C130.887 27.4369 130.108 26.6767 129.577 25.7502C129.029 24.7832 128.75 23.6868 128.769 22.5752C128.769 21.2195 129.053 20.0606 129.623 19.0986C130.162 18.1674 130.945 17.4009 131.887 16.8815C132.828 16.3658 133.886 16.0993 134.959 16.1073C135.934 16.0961 136.894 16.356 137.73 16.8578C138.562 17.3611 139.247 18.0743 139.716 18.926C140.225 19.8684 140.48 20.9268 140.456 21.9973L140.433 23.0132H131.144C131.238 24.0228 131.723 24.9555 132.496 25.612C133.258 26.2517 134.224 26.571 135.393 26.5698C136.241 26.5698 136.926 26.4123 137.448 26.0973C137.904 25.8308 138.337 25.5269 138.742 25.1886L139.92 26.9169ZM134.955 18.3026C134.118 18.2831 133.292 18.5031 132.576 18.9369C131.898 19.3597 131.451 20.0867 131.237 21.1177H138.026V20.956C137.988 20.4538 137.808 19.9729 137.507 19.5693C137.211 19.1738 136.827 18.8528 136.385 18.632C135.943 18.4111 135.456 18.2965 134.962 18.2972L134.955 18.3026Z" fill="#132337" />
		<path d="M135.162 28.896C133.973 28.9193 132.798 28.6384 131.747 28.08C130.783 27.5554 129.983 26.775 129.434 25.8247C128.873 24.8327 128.587 23.7091 128.605 22.5698C128.605 21.1922 128.9 19.9946 129.481 19.0114C130.035 18.056 130.839 17.2694 131.806 16.7361C132.771 16.2076 133.855 15.9342 134.955 15.9419C135.96 15.9327 136.947 16.2019 137.808 16.7197C138.665 17.2364 139.37 17.9698 139.853 18.846C140.373 19.8111 140.634 20.8941 140.612 21.99L140.585 23.1659H131.329C131.454 24.0679 131.907 24.8923 132.602 25.4812C133.328 26.0918 134.272 26.4026 135.397 26.4026C136.211 26.4026 136.874 26.2517 137.37 25.9519C137.819 25.6897 138.244 25.39 138.642 25.0559L138.779 24.9378L140.233 27.0695H139.971C138.637 28.2246 136.936 28.8686 135.171 28.8869L135.162 28.896ZM134.955 16.2636C133.909 16.2556 132.878 16.5152 131.96 17.0178C131.043 17.5248 130.282 18.2726 129.759 19.1804C129.214 20.1127 128.929 21.2558 128.929 22.5752C128.912 23.6565 129.183 24.7228 129.714 25.6647C130.232 26.5669 130.99 27.3079 131.904 27.8056C132.81 28.2723 133.808 28.5353 134.826 28.5761C135.845 28.6169 136.86 28.4346 137.801 28.0418C138.494 27.7632 139.137 27.3714 139.702 26.8824L138.71 25.4285C138.337 25.7265 137.943 25.998 137.532 26.2408C136.987 26.5716 136.26 26.737 135.393 26.737C134.19 26.737 133.179 26.4026 132.393 25.7411C131.59 25.0583 131.085 24.0894 130.986 23.0405L130.962 22.8587H140.273L140.3 21.99C140.319 20.9475 140.069 19.9177 139.573 19.0005C139.116 18.1766 138.45 17.4872 137.643 17.0014C136.832 16.5138 135.901 16.2604 134.955 16.269V16.2636ZM138.186 21.274H131.031L131.071 21.0814C131.297 20.0109 131.771 19.2404 132.483 18.7951C133.226 18.3461 134.08 18.1173 134.948 18.1354C135.468 18.1339 135.981 18.2539 136.446 18.4858C136.912 18.7177 137.316 19.0552 137.628 19.4712C137.945 19.8989 138.134 20.4073 138.174 20.9378L138.186 21.274ZM131.438 20.9541H137.866C137.828 20.4867 137.658 20.0396 137.378 19.6638C137.098 19.2887 136.734 18.9849 136.314 18.777C135.892 18.5664 135.427 18.4575 134.955 18.4589C134.149 18.4459 133.355 18.6621 132.667 19.0823C132.067 19.4457 131.657 20.0782 131.438 20.9596V20.9541Z" fill="#132337" />
		<path d="M71.0731 42.4225C71.0606 43.1702 71.2488 43.9076 71.6183 44.5578C71.962 45.1648 72.4549 45.674 73.0504 46.0372C73.6216 46.394 74.2816 46.5829 74.955 46.5824C75.6714 46.5985 76.3746 46.3887 76.965 45.9827C77.4804 45.631 77.9462 45.2117 78.3498 44.736L79.6674 46.3516C79.3357 46.8055 78.9295 47.2 78.4661 47.5183C77.9338 47.8923 77.3505 48.1879 76.7342 48.3961C76.0773 48.6202 75.3873 48.732 74.6933 48.7269C73.634 48.7407 72.5926 48.4526 71.691 47.8963C70.7984 47.3426 70.0694 46.561 69.5793 45.6319C69.0704 44.6363 68.8051 43.5342 68.8051 42.4161C68.8051 41.298 69.0704 40.1959 69.5793 39.2003C70.0724 38.2767 70.8009 37.4999 71.691 36.9486C72.5926 36.3923 73.634 36.1042 74.6933 36.1181C75.7345 36.0987 76.7648 36.3326 77.6956 36.7996C78.5044 37.1906 79.1856 37.8032 79.6601 38.566L78.3425 40.1817C77.9485 39.6218 77.4312 39.1599 76.8305 38.8314C76.2571 38.477 75.5998 38.2813 74.9259 38.2644C74.2326 38.2564 73.5514 38.4454 72.9614 38.8096C72.3768 39.1705 71.8989 39.6804 71.5765 40.2871C71.231 40.9449 71.0578 41.6796 71.0731 42.4225Z" fill="#132337" />
		<path d="M74.6933 48.8869C73.6034 48.9003 72.5321 48.6041 71.6038 48.0328C70.6874 47.4639 69.9385 46.6617 69.4339 45.7084C68.9119 44.6895 68.6397 43.5611 68.6397 42.4162C68.6397 41.2714 68.9119 40.143 69.4339 39.1241C69.9426 38.177 70.6908 37.3799 71.6038 36.8124C72.5319 36.2405 73.6033 35.9437 74.6933 35.9564C75.7646 35.9367 76.8246 36.1768 77.7828 36.6561C78.6175 37.0617 79.3205 37.6948 79.811 38.4826L79.8674 38.5807L78.3444 40.4508L78.2227 40.269C77.8431 39.7301 77.3459 39.2845 76.7688 38.966C76.2209 38.6288 75.5944 38.4408 74.9514 38.4208C74.2833 38.412 73.6265 38.5935 73.0577 38.9442C72.4971 39.2912 72.0382 39.7802 71.7274 40.3617C71.3949 40.997 71.2274 41.7057 71.2404 42.4226C71.2276 43.1418 71.407 43.8514 71.7601 44.478C72.0921 45.0603 72.566 45.5492 73.1377 45.8992C73.683 46.2388 74.3126 46.4189 74.955 46.419C75.6387 46.434 76.3098 46.2344 76.8742 45.8483C77.378 45.5049 77.8334 45.0954 78.2281 44.6307L78.3535 44.478L79.8655 46.3426L79.7965 46.4408C79.4539 46.9092 79.0349 47.3165 78.557 47.6457C78.0121 48.0288 77.4147 48.3312 76.7833 48.5435C76.1108 48.7743 75.4043 48.8904 74.6933 48.8869ZM74.6933 36.2781C73.6674 36.2675 72.6593 36.5472 71.7856 37.085C70.9196 37.6227 70.2102 38.3785 69.7283 39.2768C69.2322 40.2489 68.9735 41.3248 68.9735 42.4162C68.9735 43.5077 69.2322 44.5836 69.7283 45.5557C70.2079 46.4589 70.9176 47.2194 71.7856 47.7602C72.6596 48.2974 73.6675 48.5771 74.6933 48.5671C75.3672 48.5689 76.0367 48.4583 76.6743 48.24C77.2765 48.0375 77.8464 47.7492 78.3662 47.384C78.7797 47.0977 79.1474 46.7502 79.4566 46.3535L78.3408 44.9833C77.9553 45.4078 77.5217 45.7859 77.0486 46.11C76.4317 46.5352 75.6968 46.7558 74.9478 46.7406C74.2451 46.7413 73.5562 46.5449 72.9596 46.1736C72.3425 45.7961 71.831 45.2684 71.473 44.6398C71.0897 43.9646 70.8945 43.1989 70.9078 42.4226C70.8954 41.6523 71.0766 40.8912 71.4348 40.2091C71.7717 39.5782 72.2695 39.0477 72.8778 38.6716C73.4935 38.2934 74.2035 38.0968 74.926 38.1046C75.6275 38.1227 76.312 38.3251 76.9105 38.6916C77.4672 39.0013 77.957 39.4182 78.3517 39.9183L79.4639 38.5534C79.0043 37.8622 78.3688 37.3058 77.6229 36.9415C76.714 36.4879 75.709 36.2603 74.6933 36.2781Z" fill="#132337" />
		<path d="M93.5211 42.4227C93.5446 43.5667 93.2616 44.6961 92.7014 45.6939C92.1739 46.6212 91.4085 47.3909 90.4843 47.9238C89.5319 48.4674 88.4513 48.7461 87.3548 48.7307C86.255 48.7447 85.1712 48.4663 84.2144 47.9238C83.2848 47.3942 82.5151 46.6239 81.9863 45.6939C81.4455 44.6883 81.1624 43.5644 81.1624 42.4227C81.1624 41.2809 81.4455 40.157 81.9863 39.1514C82.5151 38.2214 83.2848 37.4511 84.2144 36.9215C85.1712 36.379 86.255 36.1006 87.3548 36.1146C88.4513 36.0992 89.5319 36.3779 90.4843 36.9215C91.4085 37.4544 92.1739 38.2241 92.7014 39.1514C93.2616 40.1492 93.5446 41.2786 93.5211 42.4227ZM91.0967 42.4227C91.1273 41.6741 90.9639 40.9304 90.6224 40.2636C90.3144 39.6641 89.8472 39.1611 89.2721 38.8098C88.6942 38.4605 88.0299 38.2804 87.3548 38.29C86.6765 38.2793 86.0088 38.4587 85.4271 38.8078C84.8455 39.1569 84.3732 39.6618 84.0636 40.2655C83.7227 40.9324 83.5599 41.6761 83.591 42.4245C83.5615 43.1651 83.7243 43.9008 84.0636 44.5599C84.3766 45.1637 84.8477 45.6712 85.4266 46.0283C86.007 46.382 86.6751 46.5658 87.3548 46.5589C88.0313 46.5674 88.6962 46.3834 89.2721 46.0283C89.8464 45.6696 90.313 45.1622 90.6224 44.5599C90.9626 43.9005 91.1261 43.1641 91.0967 42.4227Z" fill="#132337" />
		<path d="M87.3549 48.8869C86.2301 48.8988 85.1222 48.6129 84.1436 48.0582C83.1902 47.5136 82.4001 46.7235 81.8556 45.7701C81.3039 44.7406 81.0152 43.5906 81.0152 42.4225C81.0152 41.2545 81.3039 40.1045 81.8556 39.075C82.3995 38.1211 83.1898 37.3309 84.1436 36.7869C85.1276 36.2421 86.2338 35.9563 87.3585 35.9563C88.4832 35.9563 89.5895 36.2421 90.5734 36.7869C91.5186 37.3347 92.3013 38.1237 92.8415 39.0732C93.3932 40.1027 93.6819 41.2527 93.6819 42.4207C93.6819 43.5888 93.3932 44.7387 92.8415 45.7683C92.2986 46.7193 91.5127 47.5089 90.5643 48.0564C89.5876 48.6142 88.4796 48.901 87.3549 48.8869ZM87.3549 36.2781C86.2824 36.2687 85.2265 36.5433 84.2945 37.0741C83.3899 37.59 82.6405 38.3394 82.1245 39.244C81.6008 40.2249 81.3268 41.3197 81.3268 42.4316C81.3268 43.5436 81.6008 44.6384 82.1245 45.6193C82.6405 46.5238 83.3899 47.2732 84.2945 47.7892C85.2299 48.3055 86.281 48.5763 87.3494 48.5763C88.4179 48.5763 89.469 48.3055 90.4044 47.7892C91.3044 47.2694 92.0497 46.5191 92.5634 45.6157C93.0872 44.6348 93.3611 43.5399 93.3611 42.428C93.3611 41.3161 93.0872 40.2212 92.5634 39.2403C92.0487 38.3395 91.3035 37.5919 90.4044 37.0741C89.4768 36.5422 88.4241 36.2675 87.3549 36.2781ZM87.3549 46.717C86.6455 46.7231 85.9486 46.5305 85.3431 46.1609C84.7404 45.7886 84.2494 45.2606 83.9219 44.6325C83.5986 43.9358 83.4312 43.177 83.4312 42.4089C83.4312 41.6409 83.5986 40.8821 83.9219 40.1854C84.246 39.5568 84.739 39.0312 85.3454 38.6674C85.9519 38.3037 86.6478 38.1163 87.3549 38.1263C88.059 38.1182 88.7514 38.307 89.354 38.6715C89.9531 39.0386 90.4402 39.5628 90.7624 40.1872C91.1147 40.8781 91.2842 41.6476 91.2549 42.4225C91.2824 43.1898 91.1129 43.9512 90.7624 44.6343C90.4382 45.26 89.9525 45.7877 89.3558 46.1627C88.7544 46.5324 88.0608 46.7245 87.3549 46.717ZM87.3549 38.448C86.7054 38.4399 86.0665 38.6132 85.5101 38.9484C84.9537 39.2836 84.5019 39.7674 84.2054 40.3453C83.906 40.9953 83.751 41.7024 83.751 42.418C83.751 43.1336 83.906 43.8407 84.2054 44.4907C84.5056 45.0682 84.9565 45.5536 85.5103 45.8955C86.0657 46.2335 86.7047 46.4092 87.3549 46.4026C88.0019 46.4113 88.638 46.2354 89.1886 45.8955C89.7379 45.5515 90.1848 45.0664 90.4826 44.4907C90.8067 43.8548 90.9631 43.1467 90.9369 42.4335C90.9649 41.7125 90.8085 40.9963 90.4826 40.3526C90.186 39.7789 89.7386 39.297 89.1886 38.9587C88.6368 38.6212 88.0017 38.4443 87.3549 38.448Z" fill="#132337" />
		<path d="M102.275 36.1653C103.275 36.1653 104.076 36.3925 104.678 36.8469C105.29 37.3196 105.742 37.9702 105.97 38.7096C106.224 38.2749 106.544 37.8814 106.917 37.5429C107.347 37.141 107.837 36.8097 108.371 36.5615C108.927 36.2978 109.535 36.1624 110.15 36.1653C111.197 36.1653 112.013 36.3925 112.598 36.8469C113.189 37.3095 113.621 37.9447 113.834 38.6642C114.083 39.4891 114.205 40.3469 114.197 41.2085V48.4779H111.791V41.3593C111.791 40.4664 111.621 39.7431 111.282 39.1894C110.943 38.6357 110.304 38.3583 109.365 38.3571C108.959 38.3433 108.555 38.4109 108.176 38.5557C107.798 38.7005 107.451 38.9197 107.159 39.2003C106.879 39.463 106.657 39.7816 106.508 40.1353C106.359 40.4891 106.286 40.8702 106.294 41.2539V48.5052H103.891V41.3139C103.891 40.4513 103.709 39.7431 103.346 39.1894C102.982 38.6357 102.376 38.3583 101.528 38.3571C100.98 38.349 100.438 38.4843 99.9582 38.7496C99.5131 38.9941 99.1378 39.3482 98.8678 39.7782C98.6046 40.2044 98.4684 40.6968 98.4752 41.1976V48.4961H96.0618V36.3707H98.4643V38.3116C98.8779 37.7145 99.4084 37.2076 100.024 36.8214C100.692 36.3839 101.476 36.1555 102.275 36.1653Z" fill="#132337" />
		<path d="M114.352 48.6561H111.626V41.3595C111.626 40.5017 111.462 39.8002 111.14 39.2731C110.819 38.7461 110.232 38.5189 109.361 38.5189C108.977 38.5058 108.594 38.5694 108.234 38.7061C107.875 38.8428 107.546 39.0498 107.268 39.3149C107.003 39.5611 106.794 39.8602 106.653 40.1928C106.512 40.5253 106.443 40.8838 106.45 41.245V48.6561H103.724V41.314C103.724 40.4871 103.542 39.802 103.197 39.2786C102.851 38.7552 102.317 38.528 101.512 38.528C100.992 38.518 100.479 38.6432 100.022 38.8915C99.6023 39.1234 99.2484 39.4579 98.9933 39.8638C98.7485 40.2658 98.6225 40.7289 98.6298 41.1995V48.6507H95.9037V36.2109H98.6298V37.8301C99.0082 37.3863 99.4504 37.0011 99.9419 36.687C100.636 36.232 101.451 35.9941 102.281 36.0037C103.311 36.0037 104.153 36.2436 104.78 36.7161C105.328 37.1393 105.752 37.7024 106.006 38.3463C106.239 38.0104 106.507 37.7013 106.808 37.4249C107.25 37.0109 107.755 36.6698 108.304 36.4144C108.881 36.1429 109.512 36.0038 110.15 36.0073C111.228 36.0073 112.084 36.2472 112.694 36.7216C113.312 37.2062 113.763 37.8713 113.985 38.6243C114.237 39.4678 114.359 40.3447 114.348 41.225L114.352 48.6561ZM111.949 48.3417H114.03V41.2213C114.041 40.3713 113.924 39.5245 113.681 38.7097C113.477 38.0197 113.064 37.4098 112.5 36.9633C111.955 36.5344 111.155 36.3163 110.15 36.3163C109.559 36.3135 108.975 36.4426 108.44 36.6943C107.922 36.9352 107.445 37.2566 107.028 37.6466C106.671 37.9757 106.364 38.3561 106.119 38.7752L105.937 39.0914L105.823 38.7479C105.603 38.0409 105.171 37.4186 104.585 36.9651C104.016 36.5344 103.24 36.3163 102.281 36.3163C101.513 36.3079 100.759 36.5281 100.116 36.9487C99.5194 37.3269 99.0046 37.8214 98.6025 38.4026L98.3081 38.8424V36.5289H96.2218V48.3417H98.3026V41.1977C98.297 40.6669 98.4413 40.1454 98.7188 39.6929C99.0029 39.2415 99.3968 38.8694 99.8638 38.6116C100.368 38.3321 100.936 38.1893 101.512 38.1972C102.412 38.1972 103.071 38.5007 103.471 39.1059C103.871 39.7111 104.051 40.429 104.051 41.3195V48.3417H106.134V41.254C106.127 40.8508 106.205 40.4507 106.361 40.079C106.517 39.7073 106.749 39.3722 107.042 39.095C107.35 38.7999 107.713 38.5693 108.111 38.4166C108.509 38.264 108.933 38.1925 109.359 38.2063C110.354 38.2063 111.044 38.5116 111.413 39.115C111.782 39.7184 111.946 40.4508 111.946 41.3685L111.949 48.3417Z" fill="#132337" />
		<path d="M123.546 36.1653C124.545 36.1653 125.345 36.3925 125.946 36.8469C126.56 37.3189 127.012 37.9697 127.24 38.7096C127.495 38.2753 127.815 37.8819 128.187 37.5429C128.617 37.141 129.108 36.8097 129.641 36.5615C130.197 36.2995 130.804 36.1654 131.418 36.169C132.465 36.169 133.281 36.3962 133.866 36.8505C134.458 37.3126 134.89 37.948 135.102 38.6678C135.351 39.4927 135.474 40.3505 135.466 41.2121V48.4815H133.061V41.3593C133.061 40.4664 132.892 39.7431 132.552 39.1894C132.213 38.6357 131.574 38.3583 130.635 38.3571C130.23 38.3431 129.826 38.4106 129.447 38.5554C129.068 38.7002 128.722 38.9195 128.429 39.2003C128.149 39.4633 127.928 39.7819 127.779 40.1356C127.63 40.4893 127.557 40.8702 127.564 41.2539V48.5052H125.161V41.3139C125.161 40.4513 124.977 39.7431 124.607 39.1894C124.238 38.6357 123.632 38.3583 122.79 38.3571C122.241 38.3487 121.7 38.4841 121.219 38.7496C120.774 38.9941 120.399 39.3482 120.129 39.7782C119.867 40.2047 119.731 40.6969 119.737 41.1976V48.4961H117.332V36.3707H119.735V38.3116C120.148 37.7145 120.679 37.2076 121.294 36.8214C121.963 36.3839 122.747 36.1555 123.546 36.1653Z" fill="#132337" />
		<path d="M135.622 48.6561H132.896V41.3594C132.896 40.5016 132.734 39.8001 132.413 39.2731C132.091 38.746 131.504 38.5189 130.632 38.5189C130.247 38.5055 129.864 38.5691 129.504 38.7058C129.145 38.8425 128.816 39.0495 128.538 39.3149C128.273 39.5624 128.064 39.8631 127.923 40.1973C127.783 40.5315 127.715 40.8916 127.724 41.254V48.6652H124.998V41.3231C124.998 40.498 124.816 39.8128 124.471 39.2876C124.125 38.7624 123.58 38.528 122.782 38.528C122.263 38.5178 121.749 38.643 121.292 38.8914C120.873 39.1233 120.519 39.4578 120.264 39.8637C120.02 40.2661 119.894 40.729 119.9 41.1995V48.6506H117.174V36.2108H119.9V37.8301C120.278 37.3867 120.72 37.0016 121.21 36.687C121.906 36.2326 122.72 35.9948 123.551 36.0037C124.582 36.0037 125.423 36.2435 126.05 36.7161C126.6 37.1375 127.025 37.6994 127.282 38.3426C127.515 38.0071 127.784 37.6982 128.084 37.4212C128.525 37.0072 129.03 36.6661 129.579 36.4107C130.157 36.1392 130.788 36.0001 131.426 36.0037C132.503 36.0037 133.359 36.2435 133.97 36.7179C134.587 37.203 135.038 37.8679 135.26 38.6206C135.513 39.4641 135.635 40.341 135.624 41.2213L135.622 48.6561ZM133.221 48.3417H135.302V41.2213C135.313 40.3712 135.195 39.5243 134.951 38.7097C134.748 38.019 134.336 37.4086 133.77 36.9632C133.216 36.5343 132.425 36.3162 131.42 36.3162C130.829 36.3135 130.245 36.4426 129.71 36.6943C129.192 36.9352 128.716 37.2566 128.298 37.6465C127.937 37.9742 127.627 38.3547 127.38 38.7751L127.199 39.0913L127.084 38.7479C126.864 38.0409 126.432 37.4186 125.846 36.965C125.278 36.5343 124.502 36.3162 123.542 36.3162C122.774 36.3079 122.02 36.528 121.378 36.9487C120.781 37.3269 120.266 37.8213 119.864 38.4026L119.582 38.8424V36.5289H117.494V48.3417H119.582V41.1977C119.576 40.6669 119.721 40.1453 119.998 39.6929C120.281 39.241 120.674 38.8688 121.141 38.6116C121.645 38.3318 122.213 38.189 122.79 38.1972C123.689 38.1972 124.349 38.5007 124.749 39.1059C125.149 39.7111 125.33 40.4289 125.33 41.3194V48.3417H127.397V41.254C127.39 40.8508 127.468 40.4506 127.624 40.0789C127.78 39.7073 128.012 39.3722 128.305 39.095C128.613 38.7999 128.976 38.5692 129.374 38.4166C129.772 38.264 130.196 38.1925 130.622 38.2063C131.618 38.2063 132.309 38.5116 132.676 39.115C133.043 39.7183 133.209 40.4507 133.209 41.3685L133.221 48.3417Z" fill="#132337" />
		<path d="M149.065 46.9024H149.041C148.447 47.4459 147.758 47.8769 147.01 48.1746C146.046 48.5778 145.007 48.7652 143.963 48.7234C142.92 48.6817 141.898 48.4118 140.97 47.9329C140.031 47.424 139.251 46.6639 138.719 45.7375C138.17 44.7707 137.89 43.6742 137.91 42.5626C137.91 41.2092 138.195 40.051 138.764 39.0878C139.302 38.1553 140.084 37.3879 141.027 36.8688C141.967 36.3523 143.025 36.0857 144.098 36.0946C145.074 36.0834 146.033 36.3433 146.87 36.8452C147.702 37.3466 148.388 38.0595 148.856 38.9115C149.364 39.8539 149.619 40.9122 149.596 41.9828L149.572 43.0005H140.289C140.383 44.0096 140.868 44.9418 141.641 45.5975C142.403 46.2373 143.369 46.5571 144.538 46.5571C145.386 46.5571 146.071 46.399 146.593 46.0828C147.05 45.817 147.482 45.513 147.887 45.1741L149.065 46.9024ZM144.1 38.2881C143.263 38.2692 142.437 38.4899 141.721 38.9242C141.042 39.347 140.596 40.074 140.382 41.105H147.171V40.9433C147.133 40.4411 146.953 39.96 146.651 39.5566C146.357 39.1613 145.973 38.8407 145.532 38.6207C145.087 38.3996 144.597 38.2858 144.1 38.2881Z" fill="#132337" />
		<path d="M144.307 48.8869C143.118 48.9102 141.942 48.6293 140.892 48.0709C139.929 47.5466 139.128 46.7669 138.579 45.8174C138.02 44.8243 137.736 43.7001 137.756 42.5607C137.756 41.1831 138.05 39.9873 138.633 39.0041C139.186 38.0484 139.989 37.2612 140.956 36.727C141.921 36.1999 143.005 35.9272 144.105 35.9346C145.109 35.9244 146.097 36.1917 146.959 36.707C147.815 37.2243 148.52 37.9575 149.003 38.8333C149.519 39.8008 149.776 40.8849 149.75 41.981L149.723 43.1586H140.482C140.607 44.0604 141.06 44.8845 141.754 45.4739C142.481 46.0845 143.424 46.3935 144.549 46.3935C145.363 46.3935 146.026 46.2427 146.522 45.9446C146.971 45.6813 147.396 45.381 147.795 45.0468L147.931 44.9305L149.385 47.0623H149.123C147.788 48.2162 146.088 48.8601 144.323 48.8796L144.307 48.8869ZM144.1 36.2545C143.054 36.2474 142.023 36.507 141.105 37.0087C140.188 37.5152 139.427 38.2615 138.902 39.1677C138.357 40.1 138.072 41.2413 138.072 42.5607C138.055 43.6419 138.326 44.7083 138.857 45.6502C139.374 46.5553 140.133 47.2985 141.049 47.7965C142.295 48.4262 143.699 48.6738 145.085 48.5083C146.472 48.3428 147.778 47.7714 148.841 46.866L147.849 45.4121C147.476 45.7096 147.082 45.9811 146.671 46.2245C146.126 46.5534 145.399 46.7206 144.532 46.7206C143.329 46.7206 142.319 46.3862 141.532 45.7247C140.73 45.0413 140.226 44.0728 140.125 43.0241L140.102 42.8424H149.412L149.43 41.9828C149.452 40.9411 149.205 39.9113 148.712 38.9932C148.255 38.1696 147.589 37.4803 146.782 36.9941C145.974 36.5048 145.045 36.2488 144.1 36.2545ZM147.331 41.2667H140.183L140.223 41.0723C140.449 40.0019 140.923 39.2331 141.636 38.7879C142.378 38.3388 143.233 38.11 144.1 38.1282C144.62 38.1257 145.133 38.2451 145.599 38.4768C146.064 38.7084 146.469 39.0459 146.78 39.4621C147.097 39.8904 147.286 40.3994 147.326 40.9305L147.331 41.2667ZM140.583 40.9451H147.011C146.973 40.4776 146.803 40.0303 146.522 39.6547C146.243 39.2791 145.879 38.9746 145.459 38.766C145.037 38.5553 144.572 38.4464 144.1 38.448C143.293 38.4302 142.498 38.6419 141.806 39.0586C141.208 39.4367 140.801 40.0636 140.583 40.9451Z" fill="#132337" />
		<path d="M158.973 38.9351C158.792 38.8496 158.603 38.7838 158.408 38.7388C158.177 38.6841 157.94 38.6573 157.703 38.6588C157.194 38.6628 156.695 38.7933 156.249 39.0387C155.768 39.2972 155.359 39.6721 155.06 40.1291C154.737 40.6249 154.571 41.2072 154.584 41.7992V48.4962H152.184V36.3708H154.584V38.6588C154.921 37.924 155.453 37.2955 156.122 36.8415C156.748 36.3829 157.503 36.1325 158.279 36.1254C158.73 36.1026 159.18 36.1815 159.597 36.3563L158.973 38.9351Z" fill="#132337" />
		<path d="M154.744 48.6561H152.018V36.2108H154.744V38.0282C155.081 37.5057 155.518 37.0549 156.029 36.7015C156.683 36.2252 157.47 35.9647 158.279 35.9564C158.755 35.9323 159.23 36.0175 159.667 36.2054L159.784 36.2617L159.082 39.1695L158.901 39.0786C158.73 38.9988 158.552 38.9379 158.368 38.8969C157.674 38.7393 156.946 38.8408 156.322 39.1822C155.865 39.4281 155.476 39.7834 155.189 40.2163C154.884 40.6874 154.728 41.2398 154.742 41.801L154.744 48.6561ZM152.344 48.3417H154.424V41.7992C154.41 41.1738 154.585 40.5587 154.926 40.0345C155.241 39.5577 155.669 39.1667 156.173 38.8969C156.58 38.6718 157.033 38.5389 157.497 38.5075C157.962 38.4761 158.428 38.547 158.862 38.7151L159.408 36.4452C159.044 36.3231 158.661 36.2677 158.277 36.2817C157.534 36.2903 156.811 36.5305 156.211 36.9686C155.567 37.4097 155.055 38.0179 154.73 38.7279L154.423 39.3966V36.5288H152.344V48.3417Z" fill="#132337" />
		<path d="M162.506 42.4227C162.494 43.1704 162.682 43.9078 163.051 44.5581C163.396 45.1646 163.888 45.6737 164.483 46.0374C165.055 46.3942 165.715 46.5831 166.388 46.5826C167.104 46.5975 167.807 46.3864 168.396 45.9792C168.912 45.6281 169.378 45.2087 169.781 44.7325L171.099 46.3481C170.767 46.8025 170.361 47.1971 169.897 47.5149C169.365 47.8892 168.782 48.1848 168.165 48.3927C167.512 48.617 166.825 48.73 166.134 48.7271C165.074 48.7411 164.032 48.453 163.129 47.8965C162.237 47.3423 161.508 46.5608 161.018 45.6321C160.509 44.6365 160.243 43.5344 160.243 42.4163C160.243 41.2982 160.509 40.1961 161.018 39.2005C161.511 38.2773 162.24 37.5006 163.129 36.9488C164.032 36.3923 165.074 36.1042 166.134 36.1183C167.175 36.0993 168.205 36.3332 169.136 36.7998C169.944 37.1908 170.625 37.8034 171.099 38.5662L169.781 40.1819C169.387 39.6216 168.87 39.1596 168.269 38.8316C167.695 38.4772 167.038 38.2815 166.364 38.2645C165.672 38.2566 164.991 38.4457 164.402 38.8098C163.816 39.1701 163.337 39.6801 163.015 40.2873C162.667 40.9446 162.492 41.6793 162.506 42.4227Z" fill="#132337" />
		<path d="M166.134 48.887C165.044 48.9002 163.972 48.604 163.044 48.0328C162.128 47.4629 161.38 46.661 160.874 45.7084C160.353 44.6891 160.082 43.5609 160.082 42.4163C160.082 41.2716 160.353 40.1434 160.874 39.1241C161.382 38.1767 162.131 37.3795 163.044 36.8124C163.972 36.2406 165.044 35.9438 166.134 35.9565C167.201 35.939 168.256 36.179 169.21 36.6561C170.044 37.0628 170.746 37.6958 171.237 38.4826L171.293 38.5807L169.77 40.4508L169.648 40.269C169.269 39.7301 168.772 39.2845 168.194 38.966C167.647 38.6288 167.02 38.4408 166.377 38.4208C165.714 38.4131 165.063 38.5927 164.498 38.9387C163.938 39.2863 163.48 39.7752 163.169 40.3563C162.836 40.9911 162.667 41.7 162.681 42.4172C162.668 43.1363 162.847 43.8458 163.2 44.4726C163.532 45.0549 164.006 45.5438 164.578 45.8938C165.123 46.2334 165.753 46.4135 166.395 46.4135C167.078 46.4282 167.749 46.2286 168.313 45.8429C168.816 45.499 169.271 45.0895 169.667 44.6253L169.792 44.4726L171.299 46.3427L171.229 46.4408C170.887 46.9092 170.468 47.3165 169.99 47.6457C169.446 48.0288 168.849 48.3312 168.218 48.5435C167.547 48.7736 166.843 48.8897 166.134 48.887ZM166.134 36.2781C165.104 36.2655 164.092 36.5453 163.215 37.085C162.349 37.6227 161.639 38.3785 161.158 39.2768C160.661 40.2489 160.403 41.3248 160.403 42.4163C160.403 43.5077 160.661 44.5836 161.158 45.5557C161.638 46.4586 162.347 47.219 163.215 47.7602C164.092 48.2994 165.104 48.5791 166.134 48.5671C166.807 48.5689 167.476 48.4584 168.113 48.24C168.715 48.0375 169.285 47.7492 169.805 47.384C170.219 47.0982 170.586 46.7507 170.895 46.3536L169.779 44.9833C169.394 45.4074 168.961 45.7855 168.489 46.11C167.871 46.5355 167.136 46.7561 166.386 46.7407C165.683 46.7413 164.995 46.5449 164.398 46.1736C163.781 45.7956 163.27 45.268 162.911 44.6398C162.528 43.9645 162.333 43.1989 162.346 42.4226C162.334 41.6523 162.515 40.8911 162.873 40.2091C163.21 39.5782 163.708 39.0477 164.316 38.6716C164.932 38.2934 165.642 38.0968 166.364 38.1046C167.066 38.1227 167.75 38.3251 168.349 38.6916C168.906 39.0008 169.396 39.4178 169.79 39.9183L170.902 38.5535C170.443 37.8622 169.807 37.3058 169.061 36.9415C168.153 36.4881 167.149 36.2606 166.134 36.2781Z" fill="#132337" />
		<path d="M183.755 46.9024H183.735C183.14 47.4459 182.452 47.877 181.703 48.1746C180.74 48.5778 179.7 48.7652 178.657 48.7234C177.613 48.6817 176.592 48.4118 175.664 47.9329C174.724 47.4241 173.943 46.664 173.41 45.7375C172.863 44.7702 172.584 43.6739 172.603 42.5626C172.603 41.2093 172.888 40.051 173.458 39.0878C173.994 38.1555 174.777 37.3885 175.72 36.8706C176.661 36.3539 177.72 36.0873 178.793 36.0964C179.765 36.0872 180.72 36.3463 181.554 36.8452C182.391 37.3454 183.081 38.0583 183.553 38.9115C184.056 39.8548 184.306 40.9123 184.28 41.981L184.256 42.9987H174.979C175.073 44.0073 175.558 44.9392 176.329 45.5957C177.092 46.2354 178.061 46.5553 179.237 46.5553C180.085 46.5553 180.77 46.3972 181.292 46.081C181.748 45.8147 182.181 45.5108 182.586 45.1723L183.755 46.9024ZM178.79 38.2882C177.952 38.2687 177.127 38.4894 176.411 38.9242C175.732 39.3471 175.286 40.074 175.071 41.1051H181.861V40.9433C181.822 40.4413 181.642 39.9605 181.341 39.5567C181.046 39.1609 180.662 38.8402 180.22 38.6207C179.776 38.3997 179.286 38.2858 178.79 38.2882Z" fill="#132337" />
		<path d="M178.997 48.8869C177.808 48.9104 176.632 48.6295 175.582 48.0709C174.618 47.5471 173.817 46.7673 173.269 45.8174C172.708 44.8248 172.421 43.7006 172.44 42.5607C172.44 41.1831 172.734 39.9873 173.316 39.0041C173.87 38.0482 174.673 37.2611 175.64 36.727C176.606 36.1999 177.69 35.9272 178.79 35.9346C179.794 35.9244 180.781 36.1917 181.643 36.707C182.498 37.2243 183.203 37.9576 183.686 38.8333C184.207 39.7998 184.469 40.8848 184.447 41.9828L184.42 43.1604H175.164C175.289 44.0625 175.742 44.8869 176.436 45.4757C177.163 46.0864 178.104 46.3953 179.231 46.3953C180.045 46.3953 180.709 46.2445 181.205 45.9464C181.653 45.6827 182.078 45.3824 182.477 45.0486L182.613 44.9323L184.067 47.0641H183.804C182.47 48.2187 180.77 48.8627 179.006 48.8814L178.997 48.8869ZM178.79 36.2545C177.743 36.2472 176.713 36.5067 175.795 37.0087C174.877 37.5142 174.116 38.2607 173.592 39.1677C173.047 40.1 172.76 41.2413 172.76 42.5607C172.743 43.6421 173.015 44.7084 173.547 45.6502C174.064 46.5553 174.823 47.2985 175.738 47.7965C176.984 48.4296 178.389 48.6798 179.776 48.5155C181.164 48.3512 182.472 47.7798 183.535 46.8733L182.542 45.4194C182.17 45.7169 181.777 45.9884 181.367 46.2317C180.821 46.5607 180.094 46.7279 179.228 46.7279C178.023 46.7279 177.014 46.3935 176.225 45.732C175.424 45.0481 174.92 44.0799 174.819 43.0314L174.797 42.8496H184.098L184.118 41.99C184.14 40.9483 183.893 39.9186 183.4 39.0005C182.942 38.1772 182.277 37.488 181.47 37.0014C180.663 36.5101 179.735 36.2516 178.79 36.2545ZM182.021 41.2667H174.873L174.913 41.0723C175.137 40.0019 175.613 39.2331 176.325 38.7879C177.067 38.3385 177.922 38.1097 178.79 38.1282C179.311 38.1266 179.826 38.2466 180.293 38.4789C180.756 38.7101 181.159 39.0469 181.468 39.4621C181.786 39.89 181.975 40.3993 182.014 40.9305L182.021 41.2667ZM175.271 40.9451H181.699C181.662 40.4775 181.493 40.0301 181.212 39.6547C180.931 39.2784 180.565 38.9732 180.144 38.7637C179.724 38.5541 179.26 38.446 178.79 38.448C177.983 38.43 177.187 38.6418 176.496 39.0586C175.902 39.4367 175.491 40.0636 175.271 40.9451Z" fill="#132337" />
	</g>
	<defs>
		<clipPath id="clip0">
			<rect width="184.447" height="64" fill="white" />
		</clipPath>
	</defs>
</svg>
